<?xml version="1.0" standalone="no"?>
<!DOCTYPE svg PUBLIC "-//W3C//DTD SVG 20010904//EN"
 "http://www.w3.org/TR/2001/REC-SVG-20010904/DTD/svg10.dtd">
<svg version="1.0" xmlns="http://www.w3.org/2000/svg"
 width="700.000000pt" height="700.000000pt" viewBox="0 0 700.000000 700.000000"
 preserveAspectRatio="xMidYMid meet">
<metadata>
Created by potrace 1.14, written by Peter Selinger 2001-2017
</metadata>
<g transform="translate(0.000000,700.000000) scale(0.100000,-0.100000)"
fill="#000000" stroke="none">
<path d="M0 3500 l0 -3500 3500 0 3500 0 0 3500 0 3500 -3500 0 -3500 0 0
-3500z m2507 2859 c180 -20 315 -62 538 -169 195 -93 270 -160 373 -336 23
-39 52 -80 63 -93 l21 -22 106 103 c295 286 485 412 717 473 83 23 128 28 270
32 148 4 183 2 275 -17 202 -41 510 -158 674 -254 379 -223 579 -510 678 -973
22 -102 23 -127 22 -483 -1 -711 -23 -792 -356 -1349 -125 -208 -242 -357
-421 -536 -246 -247 -1299 -1372 -1353 -1445 -26 -36 -70 -92 -98 -125 -80
-95 -297 -314 -343 -346 -57 -40 -137 -59 -197 -48 -89 16 -144 55 -291 207
-77 79 -260 266 -406 415 -146 150 -313 326 -371 392 -58 66 -164 182 -236
258 -456 479 -951 1037 -1064 1197 -129 184 -290 559 -355 830 -39 165 -42
377 -9 695 15 138 33 290 42 339 42 246 130 415 348 671 269 316 511 463 898
549 199 45 315 53 475 35z m1535 -5617 c129 -5 171 -12 156 -28 -15 -15 -195
-23 -608 -28 -437 -6 -717 0 -742 15 -27 17 10 28 132 37 132 10 831 13 1062
4z"/>
<path d="M2235 6194 c-96 -14 -292 -61 -365 -86 -246 -86 -419 -214 -630 -465
-163 -194 -246 -346 -281 -518 -19 -92 -62 -480 -74 -660 -12 -169 15 -336 87
-550 79 -233 186 -459 286 -600 92 -131 529 -622 947 -1065 116 -124 270 -290
340 -370 71 -80 231 -246 356 -370 125 -124 263 -268 308 -321 127 -151 254
-259 306 -259 63 0 279 211 454 443 38 50 116 142 172 202 651 696 1154 1227
1191 1257 54 44 186 194 268 303 72 98 241 377 326 540 118 226 138 333 154
794 13 367 5 501 -40 676 -129 499 -392 760 -965 954 -239 81 -375 101 -552
81 -209 -23 -362 -87 -533 -222 -94 -74 -102 -83 -80 -88 32 -8 70 -64 70
-105 0 -41 -35 -75 -78 -75 -27 0 -48 -16 -143 -110 -98 -97 -114 -109 -137
-103 -23 5 -24 4 -18 -18 4 -13 10 -42 13 -65 5 -37 2 -43 -31 -72 -50 -44
-110 -45 -155 -3 -35 33 -40 68 -16 124 10 24 24 38 46 46 40 14 85 14 110 1
15 -9 19 -7 19 5 0 9 52 66 115 127 74 72 112 115 106 122 -5 6 -10 20 -12 31
-3 16 -23 1 -105 -78 -107 -102 -132 -117 -195 -117 -83 0 -145 54 -229 200
-69 119 -145 188 -281 253 -254 122 -381 157 -584 162 -77 2 -153 1 -170 -1z
m43 -125 c18 -17 32 -36 32 -41 0 -5 41 -6 100 -2 97 7 102 8 134 40 54 54
125 43 161 -26 19 -37 19 -63 0 -100 -17 -32 -61 -60 -96 -60 -27 0 -89 46
-89 66 0 11 -19 14 -100 14 l-101 0 -38 -40 c-29 -31 -45 -40 -70 -40 -100 0
-146 130 -70 194 44 37 96 35 137 -5z m2190 13 c9 -9 24 -28 32 -41 15 -23 18
-23 113 -16 73 6 97 11 97 21 0 20 60 54 95 54 38 0 70 -22 90 -60 62 -119
-89 -219 -172 -115 l-28 35 -88 0 -88 0 -38 -40 c-43 -45 -82 -52 -132 -23
-75 44 -71 162 6 194 36 14 94 10 113 -9z m-1523 -78 c37 -17 60 -61 51 -98
-11 -43 -55 -86 -88 -86 -44 0 -88 48 -88 95 0 46 13 71 48 89 34 19 37 19 77
0z m2207 -11 c59 -57 17 -163 -64 -163 -65 0 -106 77 -74 138 30 59 91 70 138
25z m-3191 -12 c33 -33 38 -75 14 -120 -28 -55 -79 -56 -129 -1 -39 44 -44 66
-21 110 17 32 27 38 73 39 24 1 42 -7 63 -28z m2214 4 c55 -54 11 -165 -65
-165 -34 0 -90 62 -90 100 0 76 102 119 155 65z m-2442 -122 c52 -47 53 -141
1 -165 -23 -11 -24 -16 -24 -98 0 -79 2 -88 24 -108 14 -11 30 -39 36 -62 36
-132 -153 -209 -224 -90 -41 70 -7 147 77 174 14 4 17 17 17 73 0 88 -7 110
-34 117 -42 10 -58 75 -31 126 30 58 110 75 158 33z m3651 -4 c46 -55 46 -110
1 -155 -23 -22 -25 -33 -25 -107 l0 -83 36 -13 c66 -24 94 -106 55 -165 -25
-37 -57 -55 -99 -56 -73 0 -122 52 -122 130 0 33 6 48 30 72 29 28 30 33 30
119 0 85 -1 90 -23 98 -36 14 -53 63 -38 111 24 80 107 107 155 49z m-2194
-16 c18 -23 21 -36 16 -73 l-7 -45 111 -105 c107 -102 126 -132 94 -144 -22
-8 -29 -4 -148 109 -72 68 -114 101 -132 102 -64 5 -103 61 -84 119 23 68 109
89 150 37z m-526 -129 l35 -36 115 -1 c100 0 118 -3 136 -19 30 -28 40 -62 31
-96 -8 -27 -5 -34 39 -77 46 -46 48 -46 94 -40 43 7 48 5 81 -28 90 -90 -11
-221 -125 -162 -35 18 -59 81 -42 111 8 15 1 27 -44 70 -49 48 -57 53 -96 51
-37 -2 -44 2 -65 32 -13 19 -23 47 -23 62 0 28 -1 29 -52 29 -40 0 -61 -6 -90
-26 -42 -29 -75 -27 -108 6 -17 17 -34 20 -120 20 -96 0 -101 -1 -109 -23 -5
-13 -136 -149 -291 -303 l-283 -280 2 -553 2 -553 35 -33 c37 -35 39 -41 24
-80 -11 -29 -62 -55 -92 -47 -45 11 -46 23 -36 437 5 215 6 493 3 618 l-7 228
283 284 c266 268 283 287 288 327 l6 43 138 3 c84 2 137 6 137 13 0 18 52 59
76 59 13 0 38 -15 58 -36z m2182 1 c20 -30 13 -81 -16 -118 -11 -14 -20 -33
-20 -42 0 -9 96 -115 214 -234 117 -119 233 -238 257 -265 l44 -49 6 -571 c4
-314 10 -590 14 -614 8 -49 -3 -68 -53 -89 -90 -38 -153 95 -64 137 l32 15 0
555 0 556 -290 289 c-159 159 -290 295 -290 302 0 10 -25 13 -105 13 -62 0
-105 -4 -105 -10 0 -5 -11 -17 -25 -26 -32 -21 -83 -8 -134 35 l-35 29 46 46
c53 52 88 59 124 25 21 -19 33 -21 126 -20 97 2 105 3 143 31 53 39 108 41
131 5z m-3432 -25 c37 -14 66 -67 66 -118 0 -36 -6 -50 -32 -76 -18 -18 -38
-35 -45 -37 -9 -3 -13 -86 -15 -325 l-3 -321 31 -27 c18 -14 35 -37 38 -51 8
-32 -18 -95 -43 -102 -18 -5 -19 -22 -23 -501 l-3 -497 26 -25 c39 -38 45 -91
17 -141 -27 -48 -62 -69 -116 -69 -70 0 -130 70 -117 136 8 44 60 104 90 104
15 0 25 8 29 23 3 12 6 234 6 494 0 384 -2 473 -13 480 -8 4 -22 20 -31 35
-22 34 -15 76 20 113 l24 26 0 323 0 324 -30 32 c-39 41 -47 87 -24 135 29 62
89 88 148 65z m4300 -18 c56 -51 60 -138 7 -182 l-29 -25 -7 -320 -7 -321 31
-33 c42 -45 43 -97 1 -144 l-30 -35 0 -480 0 -479 30 -6 c39 -8 90 -78 90
-124 0 -73 -48 -123 -117 -123 -80 0 -144 85 -122 165 10 35 33 65 50 65 5 0
9 195 9 491 l0 490 -35 33 c-26 25 -35 42 -35 66 0 24 9 41 35 66 l35 33 0
324 0 325 -22 6 c-83 22 -87 185 -6 221 39 17 94 11 122 -13z m-1522 -22 c27
-28 30 -35 24 -73 -4 -23 -15 -53 -25 -67 -16 -21 -26 -25 -65 -23 -44 1 -48
-1 -93 -52 -40 -46 -47 -59 -48 -98 -1 -54 -23 -84 -71 -93 -46 -9 -76 1 -108
33 -24 24 -27 34 -23 72 7 64 43 96 107 96 45 0 53 4 98 48 47 46 49 51 44 92
-4 38 -1 47 23 69 41 38 97 36 137 -4z m-2212 -10 c45 -45 11 -120 -54 -120
-58 0 -85 62 -50 115 21 32 75 34 104 5z m3149 -6 c28 -35 26 -69 -4 -99 -29
-30 -54 -32 -82 -5 -31 28 -36 54 -19 94 13 32 19 36 50 36 25 0 40 -7 55 -26z
m-2633 -259 c31 -33 36 -35 98 -35 56 0 67 3 76 21 13 24 67 49 106 49 16 0
39 -13 60 -34 28 -28 34 -41 34 -78 0 -35 -6 -50 -28 -71 -53 -51 -138 -44
-168 14 -14 28 -18 29 -81 29 -63 0 -68 -2 -99 -35 -34 -37 -68 -44 -118 -25
-25 9 -37 -1 -201 -162 l-175 -171 0 -608 c0 -524 2 -609 15 -616 16 -10 600
-587 747 -740 l98 -102 0 -420 c0 -278 3 -421 10 -421 18 0 50 -64 50 -100 0
-80 -76 -138 -139 -105 -17 8 -38 27 -47 40 -30 46 0 150 47 162 18 5 19 21
19 412 l0 408 -433 430 -433 430 2 599 c2 330 3 612 4 627 0 24 34 63 186 217
133 135 185 194 180 205 -8 23 17 79 45 99 13 9 43 16 68 16 37 0 49 -5 77
-35z m-1266 5 c11 -11 20 -28 20 -37 0 -23 -39 -63 -62 -63 -44 0 -77 77 -46
108 19 19 66 14 88 -8z m3085 -5 c14 -13 25 -29 25 -35 0 -6 27 -10 66 -10 63
0 69 2 101 35 30 31 40 35 83 35 42 0 52 -4 74 -31 17 -20 26 -42 26 -65 0
-32 16 -50 190 -222 l190 -186 0 -626 0 -625 -430 -427 -430 -428 0 -409 c0
-405 0 -410 21 -416 11 -4 29 -21 40 -38 44 -74 5 -167 -71 -167 -97 0 -140
120 -69 196 21 22 21 25 17 441 l-5 418 431 430 431 430 0 600 0 600 -178 169
-179 169 -35 -12 c-42 -15 -84 -2 -108 35 -14 22 -23 24 -85 24 -66 0 -70 -1
-84 -29 -46 -89 -201 -45 -201 57 0 40 27 84 60 101 39 19 94 13 120 -14z
m1554 -7 c15 -25 14 -29 -8 -52 -39 -42 -101 -28 -101 21 0 63 79 86 109 31z
m68 -158 c83 -37 96 -132 27 -196 l-34 -33 0 -110 c0 -94 2 -111 16 -111 8 0
29 -13 45 -29 24 -25 29 -38 29 -79 0 -52 -27 -102 -56 -102 -11 0 -14 -20
-14 -101 0 -96 1 -102 25 -121 62 -48 51 -154 -20 -183 l-35 -15 7 -78 c5 -60
11 -83 29 -105 67 -81 23 -187 -79 -187 -91 0 -139 119 -76 186 13 13 30 24
40 24 15 0 18 12 21 82 2 47 -1 86 -7 92 -35 36 -55 72 -55 98 0 40 26 87 55
98 24 9 25 13 25 110 0 80 -3 100 -14 100 -21 0 -54 46 -62 84 -7 42 17 102
45 111 20 6 21 13 21 126 0 102 -2 119 -16 119 -9 0 -31 15 -50 34 -29 29 -34
41 -34 79 0 52 27 92 74 113 40 17 43 17 93 -6z m-4768 -4 c84 -44 81 -184 -5
-216 -23 -9 -24 -13 -24 -121 0 -109 1 -112 30 -146 23 -26 30 -43 30 -75 0
-35 -6 -47 -41 -80 l-41 -39 4 -87 c4 -85 5 -88 41 -124 31 -30 37 -43 37 -78
0 -35 -6 -48 -35 -77 -34 -34 -35 -38 -35 -109 l0 -73 34 -16 c34 -16 66 -65
66 -100 0 -9 -7 -30 -16 -46 -18 -35 -91 -73 -121 -62 -91 33 -117 129 -52
194 18 18 23 36 26 100 l4 78 -31 16 c-70 36 -78 132 -15 182 l35 28 0 88 0
88 -40 38 c-36 34 -40 43 -40 88 0 41 5 54 28 75 15 14 35 28 45 30 15 3 18
18 22 114 5 108 5 111 -18 123 -50 27 -72 107 -46 165 23 49 103 70 158 42z
m412 -45 c36 -37 41 -97 9 -126 -20 -18 -20 -31 -20 -718 l0 -701 97 -100 c92
-95 216 -223 601 -617 l162 -167 0 -120 c0 -113 2 -124 25 -158 29 -42 31 -61
11 -108 -22 -53 -53 -76 -103 -76 -33 0 -50 7 -75 29 -28 25 -33 36 -33 73 0
53 35 106 75 114 l27 6 6 106 6 107 -327 330 c-180 182 -374 378 -432 438
l-105 107 0 714 0 713 -32 27 c-26 22 -33 36 -33 63 0 43 45 93 85 93 16 0 38
-12 56 -29z m3943 4 c36 -33 37 -95 1 -123 l-25 -20 0 -721 0 -722 -314 -317
c-400 -405 -541 -552 -540 -563 1 -5 2 -52 3 -104 l1 -95 35 -14 c50 -21 77
-70 72 -126 -6 -59 -41 -90 -100 -90 -94 0 -147 96 -97 178 17 28 20 50 20
155 0 113 2 126 23 154 13 18 203 214 424 437 l400 404 7 127 c3 70 3 390 0
711 l-7 584 -24 22 c-39 37 -28 119 20 138 39 16 73 11 101 -15z m-1964 -51
c47 -19 70 -55 70 -109 0 -75 -51 -125 -127 -125 -50 0 -82 18 -110 59 -43 64
-19 146 51 177 41 18 67 17 116 -2z m-404 -119 c27 -11 41 -27 64 -77 40 -83
39 -105 -3 -123 -46 -19 -178 -98 -267 -159 -183 -127 -288 -173 -368 -162
-50 7 -139 53 -125 65 4 5 37 18 73 31 36 13 191 86 345 162 154 77 291 145
304 151 31 15 29 31 -4 35 -37 5 -132 -35 -341 -143 -318 -164 -417 -196 -520
-169 -31 8 -69 23 -85 35 -29 20 -69 66 -69 79 0 4 46 10 103 13 161 9 254 39
482 154 234 120 326 144 411 108z m854 0 c23 -8 108 -48 188 -89 244 -122 372
-164 531 -175 64 -4 96 -10 99 -19 6 -20 -75 -89 -126 -106 -25 -9 -62 -16
-83 -16 -63 0 -199 55 -481 196 -148 74 -277 134 -287 134 -10 0 -24 -6 -30
-14 -10 -12 34 -38 251 -149 259 -133 421 -207 453 -207 31 0 11 -33 -35 -57
-37 -20 -56 -24 -110 -21 -74 4 -135 35 -365 184 -71 46 -159 99 -195 117 -36
17 -67 33 -69 34 -5 3 39 124 56 151 30 49 122 66 203 37z m-451 -655 l0 -480
-27 1 c-15 1 -38 4 -52 8 l-25 6 -1 473 0 472 53 0 53 0 -1 -480z m-259 403
l21 -27 -77 -70 c-121 -111 -275 -235 -318 -258 -46 -24 -122 -21 -175 6 -36
19 -39 32 -11 41 12 4 105 63 208 132 103 69 205 134 227 145 22 12 51 29 64
39 31 25 36 24 61 -8z m617 -85 c94 -62 207 -135 252 -163 45 -27 92 -58 104
-67 l22 -17 -40 -17 c-22 -10 -67 -19 -100 -21 l-60 -4 -82 63 c-116 90 -274
222 -300 250 l-23 24 23 32 c12 17 25 32 28 32 3 0 82 -51 176 -112z m-553
-14 c12 -4 16 -20 16 -54 0 -67 -9 -85 -79 -162 -77 -84 -121 -103 -221 -96
-39 3 -74 8 -77 12 -9 8 21 40 97 102 36 30 105 87 153 129 48 41 89 75 91 75
3 0 11 -3 20 -6z m399 -82 c56 -48 135 -114 176 -146 68 -55 72 -60 56 -73
-12 -8 -47 -13 -92 -13 -106 0 -153 29 -236 141 -34 45 -55 142 -37 164 7 8
17 15 22 15 5 0 55 -40 111 -88z m-1417 -170 c51 -40 60 -117 19 -157 -13 -14
-29 -25 -35 -25 -16 0 -13 -225 3 -238 7 -6 48 -13 91 -15 l77 -4 14 33 c24
58 92 73 142 30 22 -19 28 -32 28 -66 0 -35 -6 -47 -33 -71 -36 -32 -75 -37
-125 -15 -18 7 -81 18 -140 24 -60 7 -112 14 -118 17 -5 4 -9 73 -9 156 0 147
0 150 -23 158 -52 20 -74 104 -39 147 37 46 109 58 148 26z m2440 -16 c44 -44
48 -103 9 -141 -13 -14 -29 -25 -34 -25 -6 0 -11 -49 -13 -126 l-3 -126 -66
-35 c-42 -22 -85 -36 -122 -40 -50 -5 -58 -9 -62 -29 -3 -13 -7 -35 -10 -49
-3 -14 -24 -37 -53 -56 -26 -18 -91 -78 -144 -133 l-98 -100 0 -126 c0 -122 1
-127 23 -139 48 -26 72 -104 47 -152 -14 -25 -62 -49 -101 -49 -22 0 -41 10
-65 34 -28 28 -34 42 -34 76 0 36 6 48 35 76 l35 33 0 140 0 141 143 145 142
144 -35 15 c-69 30 -86 101 -38 154 39 41 125 18 143 -38 9 -29 47 -25 127 11
l68 32 0 76 c0 42 3 85 5 96 4 15 -2 24 -24 37 -44 25 -65 71 -51 113 16 47
54 75 102 75 32 0 47 -7 74 -34z m-2881 -21 c14 -13 25 -31 25 -40 0 -22 -45
-65 -69 -65 -18 0 -71 52 -71 69 0 5 9 20 21 35 26 33 62 34 94 1z m3292 3
c30 -28 29 -53 -2 -83 -31 -32 -58 -32 -84 1 -26 33 -27 58 -1 84 26 26 58 25
87 -2z m-1860 -161 c77 -40 45 -137 -46 -137 -20 0 -60 9 -89 20 -69 26 -86
25 -112 -7 -38 -49 -8 -113 72 -154 21 -10 79 -31 130 -45 149 -42 358 -113
424 -145 94 -44 144 -114 144 -199 0 -67 -86 -181 -148 -197 -22 -5 -97 21
-108 38 -2 4 15 21 38 37 74 51 98 81 98 122 0 53 -31 87 -115 125 -76 35
-314 115 -340 115 -33 0 -171 52 -217 81 -123 79 -155 244 -62 315 19 15 56
33 82 41 62 17 207 11 249 -10z m593 3 c41 -11 94 -61 109 -103 37 -98 -20
-206 -141 -268 -94 -48 -136 -53 -209 -25 -35 13 -65 28 -66 33 -2 5 31 20 74
32 116 34 170 60 203 98 40 45 41 95 4 119 -24 17 -29 16 -93 -4 -37 -12 -82
-22 -99 -22 -80 0 -101 104 -28 136 37 16 195 18 246 4z m-1313 -418 c26 -22
94 -87 151 -146 l102 -106 0 -126 0 -125 34 -32 c21 -20 36 -46 40 -70 21
-111 -126 -167 -188 -72 -28 43 -17 112 23 146 l31 25 0 110 0 109 -64 65
c-35 36 -100 101 -145 144 -44 43 -81 87 -81 97 0 32 44 22 97 -19z m741 -93
l32 -14 -47 -35 c-27 -19 -57 -52 -68 -73 l-20 -37 20 -37 c24 -44 72 -74 224
-138 196 -83 271 -150 271 -242 0 -66 -43 -138 -106 -180 -25 -16 -26 -15 -56
15 l-31 31 30 25 c17 14 38 42 48 62 16 34 16 39 1 70 -24 51 -93 94 -249 154
-125 48 -148 61 -194 106 -91 90 -97 191 -16 271 42 42 48 45 86 40 23 -2 57
-11 75 -18z m-939 -35 c22 -18 31 -35 31 -55 0 -59 -49 -119 -96 -119 -13 0
-35 15 -53 35 -42 48 -42 95 -2 136 37 37 79 38 120 3z m2282 -3 c31 -31 39
-83 19 -121 -15 -28 -67 -42 -108 -29 -33 11 -35 10 -87 -41 -47 -47 -53 -56
-48 -85 4 -26 0 -36 -22 -53 -55 -44 -115 -17 -115 52 0 39 26 66 63 66 22 0
44 13 83 50 29 28 57 50 62 50 5 0 7 11 5 24 -3 13 2 40 12 59 29 62 90 74
136 28z m-1149 -72 c11 -74 9 -179 -3 -179 -7 0 -29 5 -50 12 l-39 11 0 113 0
112 43 -13 c39 -11 42 -15 49 -56z m1702 45 c44 -17 10 -59 -250 -318 -56 -56
-208 -210 -338 -343 l-236 -243 0 -253 0 -254 40 -41 c34 -34 40 -47 40 -82 0
-54 -22 -94 -59 -110 -74 -30 -151 25 -151 109 0 34 6 49 30 73 l30 30 0 273
0 274 57 63 c31 35 202 209 379 388 193 194 337 348 358 383 37 57 57 68 100
51z m-3427 -56 c142 -128 768 -765 801 -816 15 -23 17 -60 17 -290 l0 -264 27
-19 c80 -59 43 -192 -59 -206 -46 -6 -88 22 -110 74 -21 51 2 115 49 139 l28
15 0 259 0 259 -396 401 c-386 390 -453 462 -454 488 0 27 42 9 97 -40z m808
-143 c40 -39 29 -106 -21 -125 -72 -28 -121 70 -66 133 21 24 59 21 87 -8z
m2931 -23 c20 -13 35 -52 29 -72 -18 -55 -95 -39 -95 20 0 44 36 72 66 52z
m-4072 -8 c42 -16 40 -71 -4 -94 -47 -25 -82 40 -43 82 18 20 23 21 47 12z
m139 -118 c67 -28 98 -91 74 -148 -20 -47 -50 -70 -100 -75 -74 -9 -137 42
-137 109 0 38 33 90 70 110 42 22 51 22 93 4z m3849 -18 c60 -65 63 -111 10
-168 -33 -34 -45 -40 -81 -40 -94 0 -147 87 -106 174 19 41 60 65 108 66 31 0
45 -7 69 -32z m-2093 -24 l34 -14 -30 -33 c-86 -90 -62 -149 92 -232 96 -52
172 -110 190 -145 20 -39 19 -127 -3 -169 -9 -19 -32 -45 -49 -59 l-33 -24 -9
23 c-6 17 -4 35 7 59 26 60 27 110 0 150 -18 27 -50 49 -145 95 -66 33 -131
69 -143 80 -39 35 -60 90 -60 155 0 55 3 63 36 100 39 43 41 43 113 14z m161
-150 c0 -92 -1 -93 -59 -73 l-31 11 0 88 0 89 45 -16 45 -15 0 -84z m-1597
-104 c31 -25 51 -80 42 -120 -9 -43 -70 -90 -117 -90 -28 0 -45 8 -72 34 -31
29 -36 39 -36 81 0 40 5 52 34 81 29 29 41 34 79 34 29 0 53 -7 70 -20z m3229
9 c35 -16 60 -56 65 -104 5 -36 1 -47 -27 -78 -56 -64 -135 -57 -181 16 -36
57 -12 144 46 168 29 11 70 11 97 -2z m-1766 -153 l28 -23 -22 -28 c-22 -28
-29 -88 -14 -113 5 -6 44 -36 87 -65 43 -28 84 -60 89 -69 44 -73 -149 -7
-222 76 -48 55 -56 159 -17 219 21 33 36 34 71 3z m93 -47 c30 -10 31 -13 31
-65 0 -45 -3 -54 -18 -54 -38 0 -62 29 -62 74 0 36 6 56 15 56 1 0 16 -5 34
-11z m-1319 -54 c61 -32 78 -100 40 -163 -38 -61 -119 -66 -172 -10 -47 50
-29 140 35 172 40 20 61 20 97 1z m2748 -18 c68 -72 40 -179 -50 -193 -47 -8
-91 16 -113 62 -35 74 17 154 100 154 30 0 47 -6 63 -23z m-1869 -76 c28 -28
37 -88 20 -125 -11 -24 -14 -109 -17 -390 l-2 -358 35 -32 c45 -39 55 -87 29
-141 -43 -90 -162 -78 -194 21 -9 28 -8 41 9 79 12 28 29 49 41 52 20 5 20 13
20 364 l0 358 -25 37 c-14 20 -25 43 -25 51 0 30 30 84 52 93 33 13 36 12 57
-9z m952 -28 c13 -35 11 -84 -6 -113 -12 -20 -14 -92 -15 -387 0 -358 0 -362
21 -368 22 -7 58 -76 59 -110 0 -32 -35 -81 -70 -95 -115 -48 -203 110 -108
195 l33 30 3 420 c2 231 5 428 8 437 10 35 60 29 75 -9z m-490 -153 c23 -13
26 -65 4 -116 -28 -68 -75 -23 -75 74 0 49 1 52 26 52 14 0 34 -5 45 -10z
m-240 -71 c18 -18 20 -28 14 -77 -4 -32 -8 -226 -9 -433 l-1 -376 32 -30 c58
-54 53 -155 -11 -194 -38 -23 -69 -24 -107 -2 -69 41 -76 135 -14 190 l36 31
-2 364 -2 363 -28 33 c-33 37 -37 76 -13 110 30 43 74 52 105 21z m536 -21
c41 -38 23 -138 -24 -138 -11 0 -13 -65 -13 -362 l0 -361 40 -37 c36 -33 40
-42 40 -84 0 -59 -21 -100 -59 -116 -58 -23 -117 3 -150 67 -23 45 -4 115 39
146 19 13 20 26 20 376 1 350 0 362 -20 388 -34 43 -21 119 24 142 29 14 75 5
103 -21z m-258 -229 c50 -47 47 -105 -8 -152 l-26 -22 5 -370 5 -370 38 -37
c32 -31 37 -42 37 -80 0 -76 -40 -118 -113 -118 -41 0 -53 5 -77 30 -15 16
-31 41 -34 55 -10 41 11 102 44 127 l30 22 0 373 c0 360 -1 373 -20 383 -25
14 -43 80 -31 113 16 41 51 67 91 67 23 0 44 -8 59 -21z"/>
<path d="M2184 6016 c-9 -23 -1 -48 19 -60 15 -9 22 -6 39 14 l20 24 -22 18
c-27 22 -49 23 -56 4z"/>
<path d="M2584 6005 c-11 -27 4 -47 33 -43 22 2 29 9 31 31 3 24 0 27 -28 27
-18 0 -33 -6 -36 -15z"/>
<path d="M4383 6023 c-17 -6 -16 -48 1 -62 18 -15 62 19 54 41 -7 17 -36 27
-55 21z"/>
<path d="M4787 6019 c-9 -6 -17 -21 -17 -35 0 -22 4 -25 33 -22 24 2 33 8 35
25 4 27 -26 46 -51 32z"/>
<path d="M1634 5795 c-10 -24 19 -49 45 -40 16 5 21 13 19 28 -4 28 -55 37
-64 12z"/>
<path d="M1610 5425 c-15 -18 -4 -52 21 -66 42 -22 82 18 59 61 -13 24 -61 27
-80 5z"/>
<path d="M5297 5813 c-12 -11 -8 -40 8 -53 18 -15 45 2 45 30 0 23 -37 39 -53
23z"/>
<path d="M5317 5423 c-11 -11 -8 -48 5 -61 19 -19 46 -14 64 13 13 20 14 28 4
40 -13 15 -61 21 -73 8z"/>
<path d="M3114 5795 c-4 -9 -2 -21 3 -26 14 -14 45 1 41 20 -4 22 -37 26 -44
6z"/>
<path d="M2593 5675 c-3 -9 -3 -19 1 -22 7 -7 36 16 36 28 0 15 -30 10 -37 -6z"/>
<path d="M2877 5603 c-15 -14 -7 -43 12 -43 22 0 45 25 36 40 -7 11 -38 14
-48 3z"/>
<path d="M3103 5364 c-8 -22 10 -49 32 -49 10 0 22 7 28 16 15 24 1 49 -28 49
-15 0 -28 -7 -32 -16z"/>
<path d="M4770 5641 c-6 -12 -7 -21 -1 -21 10 0 24 30 17 37 -2 3 -9 -5 -16
-16z"/>
<path d="M1337 5613 c-14 -13 -7 -50 13 -68 34 -31 69 0 56 50 -5 19 -13 25
-35 25 -15 0 -31 -3 -34 -7z"/>
<path d="M1278 3544 c-24 -52 43 -89 76 -42 20 28 20 33 0 52 -25 25 -63 20
-76 -10z"/>
<path d="M5610 5604 c-20 -24 -1 -68 31 -72 19 -2 28 3 37 23 15 32 15 30 -4
49 -20 20 -48 20 -64 0z"/>
<path d="M5634 3543 c-14 -56 50 -87 81 -39 24 36 6 66 -40 66 -29 0 -36 -4
-41 -27z"/>
<path d="M4100 5590 c0 -11 7 -20 15 -20 8 0 15 9 15 20 0 11 -7 20 -15 20 -8
0 -15 -9 -15 -20z"/>
<path d="M3855 5361 c-9 -28 1 -41 31 -41 22 0 25 4 22 28 -4 34 -43 44 -53
13z"/>
<path d="M2384 5326 c-9 -22 15 -48 40 -44 15 2 21 10 21 28 0 20 -6 26 -28
28 -18 2 -29 -2 -33 -12z"/>
<path d="M2730 5321 c-7 -15 -5 -24 8 -41 16 -19 22 -21 40 -11 24 13 29 40
10 59 -18 18 -46 14 -58 -7z"/>
<path d="M2786 1884 c-8 -21 11 -44 35 -44 20 0 44 35 34 50 -10 16 -62 12
-69 -6z"/>
<path d="M4204 5305 c-8 -33 12 -57 45 -53 22 3 26 8 26 38 0 32 -3 35 -32 38
-28 3 -33 -1 -39 -23z"/>
<path d="M4561 5316 c-15 -18 -4 -46 18 -46 22 0 41 19 41 42 0 22 -42 25 -59
4z"/>
<path d="M4164 1885 c-13 -34 28 -49 46 -16 14 28 13 31 -15 31 -14 0 -28 -7
-31 -15z"/>
<path d="M5844 5125 c-8 -33 12 -57 44 -53 58 7 53 70 -6 76 -26 3 -32 -1 -38
-23z"/>
<path d="M5886 4675 c-28 -28 12 -82 46 -64 32 17 17 79 -18 79 -7 0 -19 -7
-28 -15z"/>
<path d="M5871 4261 c-14 -25 11 -54 43 -49 16 2 21 10 21 33 0 25 -4 31 -27
33 -18 2 -30 -3 -37 -17z"/>
<path d="M5845 3890 c-10 -32 4 -60 30 -60 46 0 56 62 12 74 -33 9 -35 8 -42
-14z"/>
<path d="M1079 5126 c-15 -33 4 -58 39 -54 55 7 54 70 -1 76 -21 3 -30 -3 -38
-22z"/>
<path d="M1057 4693 c-27 -27 19 -96 51 -77 21 14 28 64 10 75 -16 10 -52 12
-61 2z"/>
<path d="M1062 4268 c-18 -18 -15 -46 7 -58 31 -16 53 -2 49 34 -3 34 -33 47
-56 24z"/>
<path d="M1074 3878 c-9 -29 29 -62 56 -48 43 23 30 70 -21 70 -20 0 -30 -6
-35 -22z"/>
<path d="M2334 2416 c-12 -31 0 -61 27 -64 36 -4 55 21 41 53 -13 28 -59 35
-68 11z"/>
<path d="M4627 2413 c-13 -13 -7 -61 9 -67 26 -10 34 -7 46 19 8 19 8 28 -2
40 -13 15 -42 20 -53 8z"/>
<path d="M4692 4313 c2 -20 8 -28 23 -28 31 0 28 49 -3 53 -20 3 -23 0 -20
-25z"/>
<path d="M4140 3175 c-29 -36 19 -70 53 -37 17 17 18 23 7 36 -16 20 -44 20
-60 1z"/>
<path d="M2816 3187 c-16 -11 -17 -17 -7 -36 14 -26 48 -25 65 2 9 15 7 21 -8
33 -24 17 -28 17 -50 1z"/>
<path d="M4382 2121 c-8 -4 -12 -19 -10 -32 2 -19 9 -24 33 -24 27 0 30 3 30
30 0 22 -5 31 -20 33 -11 1 -26 -2 -33 -7z"/>
<path d="M2569 2114 c-17 -21 0 -48 34 -52 32 -4 56 31 36 54 -15 19 -53 18
-70 -2z"/>
<path d="M1562 3208 c-24 -24 -4 -88 29 -88 16 0 49 40 49 60 0 33 -54 52 -78
28z"/>
<path d="M5376 3204 c-19 -18 -19 -17 -5 -48 13 -28 47 -40 66 -24 19 15 17
74 -3 82 -25 10 -42 7 -58 -10z"/>
<path d="M1850 2915 c-19 -23 2 -65 33 -65 43 0 60 35 31 64 -20 20 -48 20
-64 1z"/>
<path d="M5112 2918 c-7 -7 -12 -21 -12 -33 0 -43 50 -62 70 -26 14 27 13 37
-6 55 -19 19 -36 20 -52 4z"/>
<path d="M2114 2654 c-9 -35 18 -59 48 -43 30 16 21 63 -14 67 -23 3 -29 -2
-34 -24z"/>
<path d="M4853 2673 c-16 -6 -17 -45 -1 -61 19 -19 37 -14 50 13 17 38 -10 64
-49 48z"/>
<path d="M3012 1678 c-18 -18 -15 -35 10 -52 30 -21 60 -4 56 32 -2 20 -9 28
-28 30 -14 2 -31 -3 -38 -10z"/>
<path d="M3937 1673 c-14 -13 -7 -43 12 -53 25 -13 27 -13 44 5 23 23 10 55
-22 55 -15 0 -31 -3 -34 -7z"/>
<path d="M3236 1414 c-32 -31 -6 -71 39 -60 31 8 35 50 6 66 -25 13 -27 13
-45 -6z"/>
<path d="M3738 1419 c-26 -15 -22 -48 7 -61 45 -20 79 38 36 62 -23 12 -22 12
-43 -1z"/>
<path d="M3497 2093 c-12 -12 -7 -41 8 -47 16 -6 40 28 30 44 -7 11 -28 13
-38 3z"/>
<path d="M3490 1135 c-18 -22 -8 -50 19 -50 32 0 49 28 32 49 -17 20 -35 20
-51 1z"/>
<path d="M3492 5428 c-16 -16 -15 -43 3 -58 28 -23 66 28 39 54 -19 19 -26 20
-42 4z"/>
</g>
</svg>
