<?xml version="1.0" standalone="no"?>
<!DOCTYPE svg PUBLIC "-//W3C//DTD SVG 20010904//EN"
 "http://www.w3.org/TR/2001/REC-SVG-20010904/DTD/svg10.dtd">
<svg version="1.0" xmlns="http://www.w3.org/2000/svg"
 width="1024.000000pt" height="1024.000000pt" viewBox="0 0 1024.000000 1024.000000"
 preserveAspectRatio="xMidYMid meet">
<metadata>
Created by potrace 1.14, written by Peter Selinger 2001-2017
</metadata>
<g transform="translate(0.000000,1024.000000) scale(0.100000,-0.100000)"
fill="#000000" stroke="none">
<path d="M0 5120 l0 -5120 5120 0 5120 0 0 5120 0 5120 -5120 0 -5120 0 0
-5120z m6654 4169 c31 -36 32 -54 7 -95 -26 -43 -64 -49 -102 -17 -41 35 -40
82 2 117 40 34 62 33 93 -5z m-3274 -1 c59 -31 98 -82 112 -150 10 -48 9 -62
-6 -103 -29 -74 -80 -120 -149 -135 -56 -11 -61 -11 -115 17 -108 54 -151 165
-103 268 24 53 55 83 105 106 55 25 102 24 156 -3z m307 -16 c12 -19 19 -41
16 -50 -10 -30 -46 -62 -68 -62 -26 0 -61 36 -70 70 -4 18 0 34 16 53 30 39
75 34 106 -11z m3349 19 c46 -21 77 -59 99 -122 20 -56 19 -95 -6 -149 -31
-70 -74 -107 -135 -120 -47 -10 -58 -9 -103 11 -83 35 -141 116 -141 196 0 43
37 130 66 154 59 51 147 63 220 30z m291 -3 c37 -40 38 -65 4 -98 -36 -36 -64
-38 -96 -5 -32 31 -32 62 2 97 32 34 62 36 90 6z m-4318 -9 c29 -27 24 -66
-10 -92 -30 -22 -59 -17 -89 16 -25 26 -25 38 1 71 25 32 66 34 98 5z m903 4
c10 -9 18 -26 18 -37 0 -30 -27 -66 -50 -66 -20 0 -50 35 -50 58 0 13 44 62
56 62 4 0 16 -7 26 -17z m2481 -14 c17 -24 12 -51 -13 -74 -25 -22 -51 -16
-69 16 -13 24 -13 29 2 53 21 32 60 34 80 5z m1150 -27 c38 -33 4 -122 -47
-122 -27 0 -66 38 -66 65 0 27 27 64 54 75 22 8 31 6 59 -18z m-4738 -8 c29
-31 31 -51 9 -82 -35 -51 -83 -51 -109 -2 -20 38 -19 52 6 84 27 34 63 34 94
0z m1294 -49 c32 -16 54 -65 45 -101 -14 -54 -97 -72 -139 -29 -36 35 -33 79
6 116 35 33 48 35 88 14z m2115 5 c44 -16 52 -87 15 -126 -26 -28 -48 -30 -88
-9 -46 24 -55 74 -20 119 22 28 50 33 93 16z m1694 -2 c17 -17 15 -63 -4 -79
-34 -28 -68 26 -44 70 12 24 30 27 48 9z m-5512 -25 c9 -34 -6 -57 -39 -61
-20 -3 -30 3 -38 21 -16 36 3 67 41 67 24 0 31 -5 36 -27z m5338 16 c56 -26
53 -105 -5 -129 -37 -16 -66 -5 -84 30 -17 32 -7 75 22 98 21 15 35 15 67 1z
m-5162 -16 c37 -44 29 -82 -22 -103 -64 -26 -107 45 -58 97 26 27 59 30 80 6z
m3437 -7 c7 -8 11 -27 9 -43 -3 -24 -8 -28 -33 -28 -26 0 -30 4 -33 28 -2 16
-1 35 2 43 7 18 40 18 55 0z m-2155 -77 c14 -17 26 -41 26 -54 0 -34 -46 -85
-78 -85 -36 0 -82 46 -82 83 0 36 49 87 83 87 16 0 35 -12 51 -31z m2633 -8
c13 -19 23 -44 23 -56 0 -22 -42 -67 -73 -78 -22 -8 -72 16 -81 38 -39 102 72
184 131 96z m-496 -54 c56 -37 71 -79 64 -170 l-5 -77 811 1 c446 0 812 -1
814 -3 2 -2 5 -21 7 -43 l3 -40 -809 -3 -810 -2 -23 22 c-13 12 -23 30 -23 41
0 14 -4 17 -17 12 -103 -44 -154 -42 -202 7 -34 35 -46 79 -38 140 7 51 32 86
83 115 50 29 102 29 145 0z m-3631 -12 c64 -33 110 -112 110 -190 0 -102 -101
-215 -193 -215 -64 0 -152 62 -188 131 -24 48 -24 121 0 174 20 45 80 102 114
109 12 3 31 7 42 9 28 6 85 -3 115 -18z m645 2 c20 -16 28 -35 32 -68 5 -42 3
-48 -27 -72 -43 -36 -80 -35 -119 4 -43 42 -42 86 1 128 38 37 76 40 113 8z
m4321 5 c22 -17 54 -72 54 -91 0 -6 -14 -26 -31 -46 -25 -28 -38 -35 -69 -35
-30 0 -44 6 -64 31 -39 46 -32 90 23 136 31 27 59 28 87 5z m-2856 -18 c44
-37 60 -75 60 -138 0 -67 -15 -103 -51 -122 -41 -20 -123 -18 -169 6 -54 27
-62 26 -85 -18 l-20 -37 -710 0 c-391 0 -763 1 -827 3 l-116 4 5 37 c3 20 8
38 10 41 3 3 365 4 806 3 906 -1 840 -8 830 76 -11 99 64 171 179 171 46 0 62
-5 88 -26z m3601 -2 c181 -95 99 -392 -109 -392 -141 0 -238 179 -169 310 14
26 43 57 71 77 64 44 130 46 207 5z m-462 -18 c37 -31 41 -69 10 -108 -17 -22
-27 -26 -48 -21 -58 13 -79 80 -40 129 26 33 40 33 78 0z m-4920 -10 c17 -14
31 -32 31 -39 0 -16 -66 -75 -85 -75 -38 0 -60 93 -29 124 22 23 48 20 83 -10z
m966 -16 c22 -42 13 -76 -29 -103 -32 -21 -57 -13 -79 24 -24 41 -21 68 10 97
38 35 73 29 98 -18z m3036 13 c16 -16 29 -36 29 -45 0 -28 -22 -64 -47 -75
-36 -17 -52 -14 -78 15 -34 37 -34 86 1 113 36 28 60 26 95 -8z m-2656 -26
c31 -30 31 -52 3 -82 -30 -32 -62 -29 -87 6 -28 38 -26 55 5 80 34 27 50 26
79 -4z m2255 3 c27 -30 25 -62 -6 -87 -32 -25 -51 -26 -76 -4 -27 24 -23 68 8
92 34 27 48 26 74 -1z m-4348 -65 c36 -34 39 -86 6 -107 -45 -29 -73 -29 -106
-1 -40 34 -43 75 -7 110 32 33 72 32 107 -2z m6458 -10 c27 -22 31 -31 26 -57
-15 -73 -94 -102 -135 -50 -12 15 -21 36 -21 48 0 40 44 83 87 85 6 1 26 -11
43 -26z m-2785 -19 c14 -15 25 -30 25 -34 0 -17 -42 -59 -70 -68 -26 -10 -32
-8 -50 15 -32 40 -23 75 25 101 31 17 44 14 70 -14z m-853 -51 c29 -34 41 -64
29 -76 -8 -8 -11 -8 -11 0 0 5 -16 10 -35 9 -29 -1 -39 4 -52 26 -14 22 -15
29 -4 42 18 21 54 20 73 -1z m-3021 -102 c34 -35 37 -72 9 -118 -30 -51 -82
-56 -128 -12 -32 29 -30 88 4 128 34 41 75 42 115 2z m6861 -8 c32 -30 36 -68
13 -112 -21 -42 -63 -56 -109 -37 -64 26 -72 84 -20 145 34 40 77 42 116 4z
m-3941 -20 c33 -20 59 -68 59 -110 0 -38 -34 -91 -66 -103 -51 -20 -88 -12
-125 26 -33 34 -36 36 -86 30 -28 -3 -318 -6 -645 -6 -688 0 -888 -6 -888 -27
0 -27 -31 -74 -56 -83 -29 -11 -77 9 -88 35 -21 56 9 138 56 154 21 8 294 11
849 11 l817 0 20 35 c31 51 101 68 153 38z m1072 -23 c14 -16 27 -33 29 -38 2
-6 333 -11 803 -14 888 -5 846 -2 879 -72 24 -50 20 -74 -19 -113 -27 -27 -40
-33 -57 -28 -35 11 -52 32 -63 78 l-11 42 -759 5 c-664 4 -763 3 -783 -10 -97
-62 -121 -64 -173 -11 -43 43 -50 80 -24 131 22 42 53 60 106 60 40 0 51 -5
72 -30z m-3801 -5 c25 -55 -34 -101 -76 -59 -21 21 -20 33 6 61 28 30 56 29
70 -2z m6452 -1 c20 -19 20 -34 0 -62 -26 -38 -74 -23 -74 24 0 25 24 54 45
54 7 0 21 -7 29 -16z m-6290 -53 l27 -28 -93 -82 c-51 -44 -99 -81 -107 -81
-17 0 -51 29 -51 43 0 13 171 176 186 177 5 0 23 -13 38 -29z m6131 -11 c22
-23 64 -60 93 -83 28 -23 52 -46 52 -50 0 -5 -10 -21 -22 -36 l-23 -27 -60 48
c-33 26 -80 65 -104 86 l-44 39 22 32 c12 17 28 31 35 31 6 0 30 -18 51 -40z
m-5602 15 c22 -21 7 -67 -27 -83 -54 -27 -100 35 -59 80 20 22 66 24 86 3z
m5055 3 c18 -18 15 -42 -9 -72 -22 -28 -66 -35 -87 -14 -17 17 -15 64 4 82 18
19 75 21 92 4z m-6154 -20 c23 -32 20 -55 -9 -74 -23 -15 -27 -15 -50 0 -17
11 -25 26 -25 46 0 49 57 68 84 28z m7258 5 c27 -24 23 -68 -8 -92 -34 -26
-49 -26 -75 0 -16 16 -20 28 -15 53 11 53 60 73 98 39z m-3851 -32 c16 -16 29
-39 29 -51 0 -50 -49 -100 -97 -100 -9 0 -30 12 -45 27 -38 36 -38 81 1 122
37 40 73 41 112 2z m480 -10 c58 -58 24 -151 -55 -151 -26 0 -40 7 -60 31 -34
41 -33 79 3 118 37 40 73 41 112 2z m-3004 -23 c29 -27 31 -73 4 -88 -32 -16
-59 -12 -76 14 -16 25 -12 49 13 79 20 22 31 22 59 -5z m5449 14 c13 -8 34
-46 34 -61 0 -19 -39 -51 -62 -51 -26 0 -58 27 -58 50 0 43 56 83 86 62z
m-6076 -112 c96 -49 137 -171 94 -278 -22 -56 -62 -88 -128 -103 -170 -38
-321 134 -247 279 54 105 183 152 281 102z m4306 -14 c45 -45 47 -95 5 -137
-39 -39 -85 -39 -130 -1 -31 25 -33 32 -27 64 11 58 57 105 105 107 7 1 28
-14 47 -33z m2528 20 c52 -22 105 -83 122 -143 18 -62 13 -99 -22 -161 -52
-90 -193 -122 -285 -63 -80 50 -111 160 -69 245 21 45 86 110 125 126 31 13
92 11 129 -4z m-6413 -25 c63 -64 16 -171 -76 -171 -36 0 -75 53 -75 102 0 51
43 98 90 98 22 0 41 -9 61 -29z m1367 9 c53 -49 29 -122 -41 -128 -32 -3 -39
1 -57 30 -26 44 -25 54 9 89 35 34 59 37 89 9z m700 -3 c55 -58 48 -127 -16
-159 -41 -20 -87 -10 -119 27 -32 37 -29 77 8 120 39 44 92 49 127 12z m2507
-2 c53 -52 16 -135 -59 -135 -37 1 -62 18 -74 51 -12 31 -1 61 34 88 35 28 69
27 99 -4z m-5395 -4 c17 -32 11 -58 -17 -80 -23 -19 -29 -20 -47 -8 -21 14
-33 65 -22 93 8 22 73 18 86 -5z m6780 -6 c60 -54 11 -165 -73 -165 -33 0 -74
34 -82 69 -8 38 18 99 47 111 30 13 86 5 108 -15z m775 5 c38 -42 -19 -115
-70 -92 -18 8 -25 20 -25 40 0 62 57 94 95 52z m-5651 -30 c55 -51 70 -86 64
-154 -8 -94 -72 -156 -163 -156 -60 0 -118 30 -155 82 -65 89 -23 228 76 258
16 4 53 9 82 9 48 1 56 -2 96 -39z m616 30 c41 -11 94 -61 109 -103 32 -84 -6
-175 -88 -212 -38 -17 -48 -17 -89 -6 -87 23 -142 86 -142 161 0 68 54 140
120 158 46 13 49 13 90 2z m2539 -6 c56 -22 94 -80 99 -152 3 -51 1 -61 -28
-100 -34 -48 -80 -72 -135 -72 -46 0 -84 20 -123 64 -77 88 -39 221 73 261 52
18 67 18 114 -1z m709 -8 c47 -30 69 -61 85 -126 7 -28 16 -48 20 -44 7 7 111
-93 524 -501 l263 -260 0 -382 0 -381 -182 -174 c-609 -579 -960 -932 -936
-940 13 -5 3 -58 -12 -58 -5 0 -12 11 -16 24 -3 14 -12 27 -20 30 -23 9 -16
60 14 104 15 22 57 72 93 111 l67 72 7 227 7 227 -40 22 c-70 39 -80 121 -24
184 35 39 107 51 147 25 39 -26 65 -75 65 -125 0 -39 -5 -49 -40 -81 l-40 -37
0 -161 c0 -88 3 -168 6 -177 5 -13 54 32 208 187 111 112 264 262 341 333 77
72 167 157 200 190 l60 59 5 339 5 338 -190 187 c-369 363 -486 483 -513 526
l-28 43 -29 -38 c-34 -46 -79 -69 -134 -69 -122 0 -212 126 -170 237 38 101
168 146 257 89z m-4476 -33 c53 -46 55 -117 6 -158 -42 -36 -93 -34 -141 6
-32 26 -37 36 -37 72 1 45 10 63 50 91 31 21 92 16 122 -11z m2558 -4 c57 -32
109 -123 109 -194 1 -40 -40 -124 -75 -156 -54 -48 -126 -65 -191 -43 -95 32
-172 138 -160 223 7 56 46 129 83 158 60 45 164 51 234 12z m2476 -3 c38 -38
43 -70 19 -116 -29 -57 -86 -75 -143 -46 -62 32 -68 118 -12 169 44 39 92 37
136 -7z m-3059 -2 c42 -32 64 -75 65 -125 1 -51 -24 -86 -75 -110 -53 -23 -71
-23 -124 1 -49 22 -80 66 -89 128 -5 37 -3 47 17 69 31 33 95 63 138 63 21 0
47 -10 68 -26z m1053 20 c19 -4 49 -24 74 -51 39 -40 45 -43 70 -33 34 12 76
13 76 1 0 -5 -23 -13 -51 -18 -50 -8 -51 -8 -69 -62 -20 -60 -48 -87 -98 -97
-82 -16 -172 50 -172 127 0 95 73 152 170 133z m1720 -93 c5 -11 10 -24 10
-30 0 -16 -30 -41 -51 -41 -14 0 -19 7 -19 29 0 16 3 36 6 45 8 22 41 20 54
-3z m-5036 -13 c21 -30 20 -51 -3 -72 -26 -24 -62 -17 -80 15 -13 24 -13 29 2
53 22 33 60 34 81 4z m5516 7 c6 -8 13 -28 13 -45 2 -24 -4 -35 -26 -48 -28
-17 -29 -16 -48 7 -23 29 -24 59 -2 83 20 22 46 23 63 3z m-6535 -68 c56 -56
58 -116 8 -163 -19 -18 -37 -24 -68 -24 -37 0 -48 5 -74 35 -50 58 -41 127 22
165 46 28 74 25 112 -13z m7636 -8 c48 -51 37 -144 -20 -174 -44 -22 -85 -19
-119 10 -52 43 -47 122 9 169 44 37 92 35 130 -5z m-6006 -19 c14 -22 -38 -82
-268 -307 -133 -131 -289 -285 -347 -343 l-105 -105 5 -353 5 -354 35 -30 c82
-72 380 -357 566 -541 154 -151 203 -195 208 -182 11 30 -6 375 -19 375 -25 0
-64 42 -71 75 -9 50 2 83 41 122 59 59 150 42 194 -37 34 -61 16 -124 -46
-159 -16 -9 -18 -27 -17 -178 1 -92 4 -198 8 -234 7 -66 8 -68 88 -155 44 -49
84 -99 89 -112 11 -29 12 -492 0 -510 -6 -10 -14 -9 -39 5 l-32 18 0 227 0
227 -52 48 c-29 26 -118 113 -198 193 -80 80 -235 231 -346 335 -110 105 -269
254 -352 333 l-152 144 0 390 0 391 37 41 c106 120 632 636 696 683 29 22 56
19 72 -7z m-963 -16 c20 -43 -22 -83 -57 -54 -20 16 -19 39 2 62 23 25 41 23
55 -8z m6226 4 c18 -18 14 -45 -10 -62 -39 -27 -71 9 -52 58 7 19 45 21 62 4z
m-4033 -43 c16 -15 25 -36 25 -55 0 -38 -39 -80 -74 -80 -30 0 -66 42 -66 77
0 33 17 62 43 73 35 14 46 12 72 -15z m1854 10 c46 -23 54 -66 20 -109 -27
-34 -81 -36 -103 -4 -21 29 -20 72 0 103 19 28 43 31 83 10z m-2440 -32 c14
-11 36 -37 49 -59 19 -32 22 -49 18 -93 -9 -95 -68 -145 -164 -138 -45 3 -58
9 -92 42 -51 50 -66 94 -51 146 14 48 55 97 96 115 39 18 110 12 144 -13z
m3114 13 c45 -19 74 -54 88 -107 11 -40 10 -53 -4 -91 -27 -71 -66 -101 -134
-105 -101 -7 -163 53 -163 157 0 71 26 115 83 140 50 23 86 25 130 6z m-4494
-16 c39 -11 95 -61 118 -104 25 -48 22 -134 -7 -186 -35 -62 -80 -90 -146 -90
-64 0 -100 13 -138 48 -87 82 -85 226 6 295 60 46 103 56 167 37z m5856 -28
c103 -72 124 -202 48 -293 -35 -41 -79 -59 -149 -59 -78 0 -126 29 -159 94
-50 100 -23 201 71 265 44 30 54 32 99 27 31 -3 65 -16 90 -34z m-384 -1 c35
-36 36 -41 3 -80 -30 -36 -56 -39 -84 -11 -26 26 -25 60 1 94 26 33 44 33 80
-3z m-5145 -28 c13 -50 -29 -86 -70 -60 -34 23 -34 59 0 86 32 25 60 14 70
-26z m2939 -5 c28 -13 55 -55 55 -86 0 -22 -35 -57 -67 -66 -27 -9 -66 15 -81
49 -15 33 2 81 37 100 32 18 25 17 56 3z m-738 -20 c11 -13 24 -33 27 -45 10
-32 -18 -79 -55 -92 -43 -15 -43 -15 -78 15 -23 19 -31 34 -31 59 0 25 8 40
31 59 38 32 79 33 106 4z m-3224 -14 l28 -26 -132 -127 -132 -128 -33 21 c-19
12 -32 26 -31 33 2 12 256 252 267 253 3 0 18 -12 33 -26z m7286 -89 c60 -55
114 -110 121 -122 12 -20 10 -25 -11 -42 -13 -11 -28 -20 -32 -21 -12 0 -264
229 -271 246 -6 16 40 45 67 41 10 -1 66 -47 126 -102z m-2998 66 c32 -33 37
-65 13 -99 -37 -53 -94 -48 -119 12 -16 39 -12 60 18 94 27 30 53 28 88 -7z
m-1387 -2 c52 -41 19 -129 -48 -129 -58 0 -89 87 -46 130 26 26 60 25 94 -1z
m-1453 -8 c20 -16 22 -22 12 -42 -6 -14 -22 -31 -37 -38 -23 -13 -28 -12 -46
4 -25 23 -25 50 0 75 25 25 41 25 71 1z m3296 -40 c13 -30 12 -34 -16 -62 -35
-35 -64 -37 -85 -7 -32 45 -15 104 34 121 22 7 53 -16 67 -52z m963 37 c56
-61 -19 -129 -79 -72 -20 19 -4 65 29 81 31 16 26 17 50 -9z m-6085 -20 c71
-84 -41 -196 -128 -128 -49 39 -39 112 21 144 44 25 77 20 107 -16z m2837 15
c25 -22 23 -71 -4 -100 -27 -28 -48 -29 -76 -3 -31 29 -29 73 4 99 32 25 51
26 76 4z m5156 -15 c56 -61 24 -147 -56 -148 -39 0 -92 46 -92 79 0 11 14 36
31 56 38 43 84 48 117 13z m-5928 -1 c52 -40 65 -115 30 -160 -25 -31 -82 -50
-115 -37 -53 20 -82 100 -54 151 24 46 105 73 139 46z m3849 -22 c36 -41 41
-86 14 -125 -26 -38 -45 -49 -81 -50 -44 0 -68 14 -87 50 -25 49 -19 88 19
126 48 48 92 47 135 -1z m1314 -26 c37 -45 9 -108 -55 -124 -36 -9 -78 31 -78
75 0 46 42 84 83 76 18 -3 40 -16 50 -27z m-6488 -9 c8 -16 15 -36 15 -45 0
-23 -45 -65 -70 -65 -26 0 -70 43 -70 68 0 36 38 72 75 72 28 0 37 -6 50 -30z
m-226 -6 c23 -29 16 -55 -20 -75 -40 -21 -74 35 -49 82 15 27 45 24 69 -7z
m6906 1 c50 -50 12 -115 -50 -87 -38 18 -52 55 -31 87 21 32 50 32 81 0z
m-3388 -80 c59 -25 101 -62 133 -118 26 -45 30 -62 30 -125 0 -82 -20 -133
-74 -190 -50 -53 -102 -76 -171 -75 -72 1 -121 21 -176 70 -52 47 -80 103 -86
172 -10 108 39 202 132 253 59 32 152 38 212 13z m1317 -36 c28 -33 28 -63 -2
-86 -22 -18 -35 -16 -66 8 -20 16 -26 29 -26 58 0 45 5 51 41 51 18 0 36 -10
53 -31z m-2752 -6 c25 -23 22 -50 -8 -70 -42 -27 -84 10 -65 60 12 31 44 36
73 10z m-825 -8 c118 -50 171 -158 128 -262 -20 -48 -41 -71 -87 -94 -78 -40
-195 -14 -257 57 -34 38 -45 84 -39 154 12 118 142 192 255 145z m4456 -1 c73
-37 110 -99 109 -182 -1 -174 -195 -272 -323 -165 -67 57 -89 164 -50 241 23
44 76 97 111 111 39 15 118 13 153 -5z m1757 -75 c56 -25 86 -53 112 -104 48
-93 7 -235 -82 -283 -63 -33 -160 -28 -227 14 -119 74 -130 247 -21 339 69 58
140 69 218 34z m-7933 -9 c79 -35 128 -148 104 -237 -24 -89 -81 -139 -170
-150 -98 -11 -187 49 -227 154 -14 37 -15 52 -5 96 13 61 59 123 105 143 46
20 143 17 193 -6z m589 -14 c27 -27 34 -42 34 -74 0 -78 -76 -129 -144 -97
-39 19 -71 74 -62 109 8 31 44 76 70 86 41 17 68 10 102 -24z m2595 10 c41
-17 124 -78 151 -110 39 -46 79 -115 97 -169 11 -31 39 -95 63 -143 36 -73 56
-99 120 -157 78 -71 78 -71 78 -121 0 -145 -41 -247 -137 -343 -71 -72 -183
-131 -308 -163 -139 -36 -224 -23 -236 35 -10 54 3 65 81 65 212 0 395 110
484 292 l38 78 -83 77 c-99 93 -147 164 -188 278 -43 119 -63 156 -110 198
-125 113 -262 113 -456 1 -242 -139 -357 -201 -463 -249 -132 -60 -320 -125
-432 -150 -103 -23 -353 -31 -432 -15 -73 16 -118 50 -118 90 0 38 23 44 100
29 100 -20 354 -6 470 24 213 57 409 142 640 277 195 114 303 169 367 185 72
18 223 14 274 -9z m1669 10 c90 -19 157 -51 332 -157 271 -164 516 -269 738
-316 93 -19 338 -25 422 -9 43 7 47 6 63 -18 16 -24 16 -28 1 -51 -43 -65
-131 -83 -327 -65 -162 15 -245 32 -399 85 -170 58 -248 95 -460 220 -284 168
-396 212 -502 201 -70 -7 -126 -34 -163 -78 -16 -18 -63 -104 -105 -190 -84
-171 -160 -276 -242 -336 -27 -18 -48 -37 -48 -42 0 -4 18 -39 40 -76 113
-196 259 -284 466 -284 102 0 114 -7 114 -64 0 -41 -34 -56 -125 -56 -217 0
-445 130 -531 304 -32 65 -36 84 -41 172 l-5 99 82 74 c78 71 84 79 146 210
36 75 75 154 86 176 51 95 138 175 222 201 54 17 156 17 236 0z m2446 -20 c26
-26 34 -42 34 -70 0 -52 -24 -92 -61 -105 -50 -17 -69 -13 -105 23 -38 38 -42
67 -20 120 30 73 97 87 152 32z m-1692 -7 c15 -12 26 -30 26 -45 0 -29 -33
-64 -60 -64 -24 0 -60 34 -60 56 0 19 19 56 34 66 18 12 32 9 60 -13z m1913
-11 c13 -12 23 -32 23 -44 0 -25 -46 -67 -64 -57 -48 27 -57 57 -30 98 20 31
41 32 71 3z m-5282 -8 c35 -39 -10 -93 -62 -73 -13 5 -18 50 -7 77 8 22 47 20
69 -4z m-1933 -20 c23 -31 15 -58 -20 -71 -18 -7 -31 -5 -48 6 -28 18 -30 41
-8 73 20 29 51 25 76 -8z m518 -20 c10 -5 24 -26 30 -45 15 -44 -3 -77 -50
-94 -28 -9 -34 -8 -56 14 -32 32 -32 78 1 110 26 27 46 31 75 15z m6180 -10
c29 -29 34 -63 16 -99 -28 -54 -95 -52 -132 3 -30 48 8 116 66 116 17 0 39 -9
50 -20z m-5661 -111 c41 -40 41 -80 2 -120 -18 -17 -40 -29 -56 -29 -36 0 -85
50 -85 87 0 32 13 52 50 77 35 23 54 20 89 -15z m5182 2 c38 -38 39 -80 2
-120 -44 -48 -76 -50 -118 -8 -46 46 -46 78 -1 123 43 43 77 44 117 5z m-6172
-62 c47 -47 36 -106 -26 -138 -32 -17 -48 -14 -82 15 -42 35 -42 81 0 123 17
17 41 31 54 31 13 0 37 -14 54 -31z m2756 19 c22 -10 55 -53 55 -72 0 -3 -28
-20 -62 -37 -35 -17 -110 -66 -168 -108 -139 -102 -234 -163 -356 -228 -132
-70 -230 -104 -388 -138 -162 -35 -308 -32 -421 6 -68 23 -70 25 -73 59 -4 63
2 65 124 45 345 -56 651 51 1100 387 145 108 143 107 189 86z m1780 -108 c277
-194 461 -289 661 -340 104 -27 269 -36 359 -20 141 25 143 25 150 -3 14 -54
3 -71 -58 -95 -224 -89 -645 6 -960 216 -96 65 -271 186 -312 217 -18 14 -53
32 -79 41 -37 13 -46 20 -46 40 0 34 37 64 79 64 29 -1 67 -23 206 -120z
m2628 95 c46 -47 43 -107 -7 -140 -40 -26 -86 -16 -114 25 -29 43 -24 85 14
118 34 29 75 28 107 -3z m-6823 -90 c75 -38 111 -143 76 -226 -19 -45 -53 -75
-101 -92 l-40 -14 -5 -124 -5 -124 -29 -3 c-16 -2 -32 2 -37 10 -5 7 -6 68 -2
134 6 117 5 122 -15 128 -31 10 -80 71 -91 113 -37 140 119 263 249 198z
m6536 -7 c44 -30 76 -81 81 -133 7 -61 -35 -150 -82 -172 -38 -18 -45 -48 -45
-190 l0 -84 -32 3 -33 3 3 126 4 127 -32 7 c-37 8 -95 56 -116 96 -22 43 -18
127 8 165 54 79 168 103 244 52z m959 12 c15 -17 16 -24 7 -46 -10 -21 -18
-25 -45 -22 -25 2 -33 8 -35 26 -4 25 22 62 43 62 7 0 20 -9 30 -20z m-8524
-17 c12 -32 7 -48 -20 -62 -39 -21 -69 40 -35 73 23 24 43 19 55 -11z m3595
-101 c12 -9 26 -26 32 -38 10 -18 3 -27 -56 -77 -37 -31 -103 -88 -146 -127
-217 -193 -529 -333 -742 -334 -101 0 -134 17 -134 68 0 18 6 38 13 44 8 7 52
11 108 10 155 -3 325 55 519 175 94 59 153 107 256 208 51 49 100 89 110 89
11 0 29 -8 40 -18z m1356 -33 c132 -127 313 -250 473 -322 126 -56 202 -77
320 -88 119 -12 145 -24 145 -67 0 -47 -25 -62 -104 -62 -76 1 -129 11 -271
55 -209 64 -383 174 -655 413 -41 36 -44 42 -35 68 9 25 45 53 67 54 4 0 31
-23 60 -51z m-4624 -401 l-3 -433 -38 1 c-21 1 -40 4 -43 7 -7 7 -5 837 2 848
3 5 23 9 45 9 l40 0 -3 -432z m3962 422 c13 -8 15 -103 18 -737 1 -400 -1
-753 -5 -784 l-8 -56 -70 26 -70 27 -7 64 c-12 111 -6 1454 6 1462 16 11 118
9 136 -2z m3898 2 c10 -7 12 -100 10 -433 l-3 -424 -36 -3 c-31 -3 -37 1 -43
20 -8 30 -8 259 1 586 l6 262 26 0 c14 0 32 -4 39 -8z m-8088 -40 c36 -35 40
-44 40 -87 0 -41 -4 -52 -35 -80 -51 -49 -88 -54 -139 -18 -43 30 -66 77 -58
119 2 12 20 41 39 63 29 35 40 41 73 41 32 0 47 -7 80 -38z m8392 17 c43 -23
65 -119 39 -168 -17 -30 -70 -61 -107 -61 -43 0 -111 60 -120 104 -13 74 63
153 136 140 19 -3 43 -10 52 -15z m-7886 -28 c42 -25 61 -80 44 -122 -17 -40
-47 -59 -93 -59 -75 0 -136 97 -94 150 40 51 92 62 143 31z m7352 -16 c59 -69
-7 -192 -92 -171 -43 11 -86 55 -86 87 0 100 116 155 178 84z m-6388 -108 c0
-13 -6 -31 -13 -41 -11 -15 -17 -17 -35 -7 -12 6 -22 16 -22 22 0 25 22 49 45
49 19 0 25 -5 25 -23z m5357 -3 c8 -22 -10 -49 -32 -49 -10 0 -22 7 -28 16
-15 24 -1 49 28 49 15 0 28 -7 32 -16z m-3166 -34 c26 -26 29 -32 18 -52 -18
-34 -132 -156 -197 -211 -156 -132 -382 -227 -543 -229 -88 -1 -111 16 -107
76 l3 41 110 6 c61 3 130 11 154 18 146 41 329 173 459 329 24 29 50 52 58 52
9 0 29 -13 45 -30z m1043 -36 c90 -119 263 -239 424 -293 46 -16 87 -21 165
-21 119 0 130 -6 125 -67 -2 -28 -9 -41 -28 -50 -34 -17 -153 -16 -222 2 -94
24 -255 101 -341 163 -95 69 -257 233 -257 260 0 25 44 72 67 72 10 -1 39 -29
67 -66z m2901 -19 c29 -28 31 -51 9 -83 -18 -26 -50 -28 -82 -6 -26 18 -29 59
-6 92 20 29 49 28 79 -3z m-6906 -19 c12 -25 11 -31 -6 -55 -40 -53 -93 -33
-93 35 0 59 73 74 99 20z m373 -13 c35 -33 36 -63 2 -97 -34 -33 -67 -33 -93
0 -29 37 -26 68 10 98 38 32 46 32 81 -1z m6163 2 c29 -28 32 -56 9 -90 -23
-35 -75 -34 -103 1 -27 34 -26 46 5 83 31 37 57 39 89 6z m-5607 -41 c71 -49
67 -170 -8 -209 -52 -27 -94 -20 -140 23 -33 32 -40 46 -40 76 0 77 46 126
120 126 25 0 56 -7 68 -16z m5102 3 c55 -43 70 -145 28 -184 -68 -62 -149 -55
-192 17 -29 50 -12 122 38 162 25 21 103 24 126 5z m1645 -26 c36 -29 44 -46
44 -86 0 -44 -14 -69 -56 -97 -40 -26 -55 -23 -103 20 -35 31 -42 43 -42 73 0
49 16 75 60 98 39 21 64 19 97 -8z m-8394 2 c29 -17 59 -67 59 -97 0 -20 -56
-83 -80 -91 -17 -5 -19 -15 -19 -65 l1 -59 28 6 c22 4 35 -1 56 -22 23 -23 26
-32 21 -68 -7 -48 -28 -67 -73 -67 -56 0 -90 62 -62 113 18 33 18 157 0 157
-8 0 -29 15 -48 34 -26 26 -34 42 -34 71 0 29 8 45 34 71 39 39 72 43 117 17z
m7858 -58 c52 -60 37 -146 -33 -179 -34 -16 -37 -16 -75 4 -48 24 -71 55 -71
93 0 64 52 116 116 117 24 0 40 -9 63 -35z m-7311 9 c49 -34 66 -111 34 -150
-41 -51 -104 -58 -152 -17 -43 36 -53 66 -36 107 29 71 100 98 154 60z m422
-114 c71 -36 114 -134 92 -208 -49 -162 -228 -213 -333 -95 -64 74 -73 131
-34 210 55 109 167 147 275 93z m6509 6 c87 -55 120 -129 101 -222 -20 -97
-90 -154 -188 -154 -73 0 -150 60 -178 137 -48 136 40 259 189 262 23 1 52 -8
76 -23z m-5594 -32 c19 -8 45 -55 45 -84 0 -30 -53 -80 -85 -80 -68 0 -103
106 -49 149 27 21 59 26 89 15z m4584 -18 c12 -13 24 -39 28 -59 5 -30 1 -40
-22 -61 -77 -71 -186 28 -125 113 28 40 85 44 119 7z m1882 -79 c-8 -8 -11 2
-10 34 l1 44 10 -34 c6 -23 6 -37 -1 -44z m13 -36 c28 -31 31 -82 6 -114 -30
-38 -90 -38 -119 -1 -29 37 -26 70 8 105 34 34 79 38 105 10z m-7831 -45 c53
-49 43 -126 -20 -152 -43 -18 -77 -9 -109 29 -33 39 -27 80 16 120 38 34 78
35 113 3z m7320 13 c78 -35 52 -162 -35 -176 -33 -5 -41 -2 -73 30 -22 22 -35
45 -35 61 0 31 24 82 42 89 23 10 77 7 101 -4z m-754 -53 c31 -32 33 -37 22
-67 -19 -56 -49 -79 -99 -79 -35 0 -49 6 -73 29 -18 18 -29 24 -29 15 0 -8 -4
-14 -10 -14 -19 0 -10 32 20 70 27 34 99 80 126 80 5 0 25 -15 43 -34z m-5822
-5 c40 -25 50 -54 28 -87 -21 -32 -52 -43 -90 -33 -71 21 -75 106 -5 132 25 9
34 8 67 -12z m-1367 -86 c25 -30 -16 -79 -46 -54 -19 16 -17 46 4 58 23 14 28
13 42 -4z m2793 -6 c78 -21 148 -113 149 -194 1 -55 -34 -128 -79 -162 -25
-19 -51 -28 -95 -32 l-62 -6 -3 -430 c-2 -307 -7 -459 -17 -530 -17 -116 -25
-428 -27 -1029 l-2 -429 490 -486 c269 -267 512 -504 541 -526 29 -21 52 -42
52 -45 0 -4 -13 -19 -30 -35 l-29 -28 -85 77 c-47 42 -314 303 -593 579 -279
276 -627 619 -773 762 -251 246 -1245 1226 -1721 1696 -120 119 -219 223 -219
230 1 19 21 43 47 57 33 18 43 15 43 -15 0 -30 -20 -10 700 -717 212 -208 631
-623 932 -922 301 -299 549 -544 551 -544 2 0 7 303 11 673 5 520 10 699 22
792 11 79 18 250 23 505 l6 385 -26 30 c-68 77 -79 155 -35 242 45 90 132 129
229 102z m3000 -13 c51 -21 114 -99 126 -157 9 -42 8 -57 -9 -101 -10 -28 -31
-63 -45 -78 -26 -27 -26 -29 -27 -191 -1 -90 4 -279 10 -419 18 -399 32 -1011
32 -1407 0 -200 4 -364 9 -367 5 -3 34 22 64 57 54 62 250 257 962 963 458
453 781 771 993 977 89 87 169 169 178 182 9 14 24 25 34 25 27 0 53 -36 46
-63 -3 -15 -145 -160 -338 -348 -183 -178 -356 -346 -384 -374 -27 -27 -322
-318 -654 -645 -331 -327 -678 -669 -770 -760 -92 -91 -272 -267 -401 -391
-129 -125 -366 -358 -528 -518 -162 -160 -301 -291 -310 -291 -8 0 -24 9 -36
20 l-22 20 461 457 c254 252 497 494 540 538 l79 80 -2 440 c-1 330 -6 469
-17 555 -11 82 -17 228 -20 505 -2 215 -7 505 -11 645 l-8 254 -40 4 c-53 5
-83 22 -132 75 -64 70 -74 139 -31 222 46 87 161 129 251 91z m2769 -11 c15
-33 -4 -55 -47 -55 -40 0 -52 23 -30 56 21 33 62 32 77 -1z m-8268 -49 c91
-38 150 -171 115 -263 -48 -129 -177 -179 -294 -115 -142 78 -149 284 -12 366
49 30 136 35 191 12z m8027 2 c54 -18 96 -56 124 -111 80 -161 -47 -326 -222
-289 -102 21 -173 105 -173 205 0 138 141 240 271 195z m-6693 -31 c27 -25 30
-95 6 -132 -21 -32 -73 -49 -108 -36 -31 13 -66 66 -66 103 0 32 42 85 73 91
34 6 70 -4 95 -26z m5322 -4 c20 -18 33 -41 37 -65 5 -33 2 -41 -30 -73 -53
-53 -130 -41 -157 24 -41 101 70 185 150 114z m-5776 -15 c21 -29 20 -58 -1
-74 -27 -20 -60 -17 -77 8 -20 29 -20 30 5 62 25 32 53 33 73 4z m2729 8 c101
-46 138 -141 79 -204 -69 -74 -208 -43 -249 56 -14 34 -14 34 -66 28 -101 -13
-161 -77 -161 -171 0 -58 33 -126 83 -168 42 -35 156 -80 296 -117 347 -92
611 -179 718 -238 81 -43 172 -135 208 -207 30 -61 31 -69 27 -152 -7 -141
-65 -232 -205 -324 -92 -59 -114 -65 -166 -41 -23 11 -50 22 -59 25 -10 4 -18
15 -18 25 0 26 23 44 110 85 135 64 200 140 200 233 0 61 -30 122 -82 170 -43
39 -153 94 -226 113 -23 7 -95 32 -159 57 -65 25 -181 61 -258 80 -354 87
-502 169 -576 320 -81 163 -9 351 157 414 49 18 73 21 140 17 45 -2 88 -1 95
4 21 13 76 11 112 -5z m987 -8 c45 -14 110 -59 145 -100 47 -55 67 -112 67
-189 0 -91 -42 -184 -112 -250 -63 -59 -191 -123 -301 -150 l-86 -21 -79 35
c-43 19 -89 38 -102 42 -34 10 -24 39 18 47 19 4 94 19 165 33 208 40 308 100
350 209 20 53 15 98 -18 147 -27 41 -98 79 -148 79 -30 0 -39 -4 -44 -22 -17
-54 -83 -98 -147 -98 -63 0 -138 70 -138 128 0 46 58 101 128 122 35 10 256 1
302 -12z m-4187 -29 c60 -66 15 -174 -73 -174 -35 0 -47 6 -71 33 -38 42 -39
89 -2 132 48 58 98 61 146 9z m6642 12 c0 -14 -11 -32 -27 -44 -27 -20 -28
-20 -48 -2 -40 36 -15 77 45 72 24 -2 30 -7 30 -26z m518 18 c51 -23 75 -119
42 -166 -22 -32 -79 -48 -116 -33 -85 35 -92 151 -11 194 33 18 53 19 85 5z
m-6894 -25 c27 -34 27 -59 -1 -78 -31 -22 -58 -20 -85 6 -29 27 -29 39 2 72
31 33 58 33 84 0z m6589 10 c28 -19 28 -57 0 -84 -29 -26 -63 -26 -82 2 -21
30 -20 47 6 75 25 27 45 29 76 7z m-6214 -26 c4 -13 10 -128 13 -256 5 -203 4
-240 -11 -290 -19 -63 -42 -100 -53 -88 -5 4 -8 141 -8 305 0 267 2 300 18
324 21 33 33 34 41 5z m5801 -25 c3 -10 11 -132 17 -271 9 -195 9 -255 -1
-265 -17 -17 -42 1 -65 47 -17 34 -18 53 -10 255 7 160 13 222 23 234 17 22
27 21 36 0z m-4715 -52 c29 -54 -9 -106 -55 -76 -27 17 -30 41 -11 70 20 30
51 32 66 6z m3672 -16 c26 -58 -31 -113 -66 -63 -31 43 -15 88 31 88 15 0 27
-9 35 -25z m-4312 -71 c26 -30 31 -42 26 -67 -15 -73 -101 -104 -153 -55 -34
32 -32 100 3 133 41 38 84 34 124 -11z m4975 11 c19 -18 25 -35 25 -67 -1 -46
-12 -68 -47 -86 -36 -20 -63 -14 -99 22 -46 46 -46 83 1 125 44 39 86 41 120
6z m-5846 -11 c53 -44 40 -123 -24 -150 -49 -20 -63 -18 -96 15 -38 39 -38 76
2 124 37 45 73 49 118 11z m6437 11 c52 -36 51 -97 -1 -131 -21 -14 -30 -14
-56 -4 -38 16 -64 62 -49 89 11 21 59 60 75 61 6 0 20 -7 31 -15z m-6201 -20
c35 -35 33 -76 -6 -109 -43 -37 -59 -34 -92 14 -24 35 -21 57 12 91 36 35 54
36 86 4z m6496 -4 c56 -57 23 -141 -56 -141 -45 0 -95 45 -95 85 0 38 50 85
90 85 22 0 41 -9 61 -29z m-5710 -61 c37 -20 19 -84 -22 -78 -19 2 -25 10 -27
37 -2 20 2 37 10 42 17 11 16 11 39 -1z m4571 -7 c33 -29 17 -83 -24 -83 -10
0 -25 11 -34 25 -15 23 -15 27 0 50 19 29 33 31 58 8z m-4964 -64 c2 -28 -1
-37 -15 -41 -35 -9 -63 9 -63 40 0 37 8 44 45 40 27 -3 30 -7 33 -39z m5420
11 c4 -36 -32 -74 -58 -60 -23 12 -27 59 -8 78 7 7 24 12 38 10 18 -2 26 -10
28 -28z m-6298 -15 c60 -31 59 -129 -1 -161 -54 -28 -94 -15 -129 41 -52 85
38 168 130 120z m7200 0 c60 -31 70 -109 19 -156 -35 -33 -57 -36 -99 -14 -61
32 -68 99 -16 151 38 38 54 41 96 19z m-2452 -41 c42 -29 18 -104 -34 -104
-26 0 -54 34 -54 67 0 21 33 53 55 53 6 0 21 -7 33 -16z m-2306 -11 c40 -36 9
-105 -47 -105 -33 0 -65 29 -65 59 0 52 72 82 112 46z m-1062 -60 c31 -20 45
-37 70 -85 26 -49 25 -102 -4 -164 -24 -51 -47 -74 -106 -106 -21 -12 -29 -22
-23 -30 4 -7 10 -179 13 -383 l5 -369 50 -18 c58 -20 82 -45 91 -94 14 -76
-42 -134 -129 -134 -59 0 -82 11 -103 52 -12 23 -15 45 -10 87 6 49 8 885 3
886 -1 0 -23 10 -48 23 -38 19 -51 33 -74 82 -23 49 -27 66 -21 106 15 114 94
179 206 168 30 -2 66 -12 80 -21z m4491 12 c171 -61 172 -300 1 -373 l-48 -21
-64 22 c-57 19 -68 28 -94 70 -71 115 -33 250 84 301 45 19 67 20 121 1z
m-6386 -20 c14 -13 25 -34 25 -46 0 -55 -86 -93 -110 -50 -19 36 -12 78 16
100 34 27 40 26 69 -4z m5465 5 c12 -22 5 -60 -10 -60 -5 0 -15 -3 -23 -6 -24
-9 -51 39 -37 65 14 27 56 27 70 1z m2767 -12 c31 -29 30 -71 -3 -97 -36 -28
-68 -26 -93 5 -28 36 -26 60 5 89 33 31 61 32 91 3z m-7373 -24 c83 -78 69
-209 -29 -256 -41 -20 -49 -21 -92 -9 -26 7 -56 20 -66 29 -71 64 -59 184 23
240 49 33 126 31 164 -4z m6601 -17 c34 -33 45 -52 50 -89 19 -124 -115 -213
-216 -145 -76 51 -97 123 -59 198 27 52 72 79 134 79 44 0 53 -4 91 -43z
m-672 -35 c34 -37 30 -110 -7 -134 -21 -15 -53 -8 -75 16 -32 34 -27 105 9
123 35 18 54 16 73 -5z m-5338 -37 c14 -13 25 -34 25 -45 0 -61 -77 -125 -118
-99 -25 16 -62 71 -62 93 0 10 14 31 31 47 40 38 90 39 124 4z m4596 -5 c34
-19 15 -90 -24 -90 -33 1 -55 47 -37 80 12 22 31 25 61 10z m-671 -45 c55 -28
79 -123 44 -173 -20 -29 -66 -52 -105 -52 -48 0 -99 56 -99 109 0 55 24 99 63
116 42 18 62 18 97 0z m-3235 -25 c0 -29 -34 -40 -54 -17 -18 23 -2 49 28 45
20 -2 26 -8 26 -28z m751 -4 c29 -29 34 -41 34 -79 0 -111 -122 -152 -195 -66
-36 44 -34 98 6 144 27 30 37 35 76 35 38 0 50 -5 79 -34z m-2755 14 c20 0 49
-42 49 -70 0 -82 -122 -109 -150 -34 -19 50 34 123 78 108 8 -2 18 -4 23 -4z
m7962 -38 c15 -15 27 -39 27 -51 0 -32 -34 -84 -65 -101 -23 -12 -30 -12 -60
4 -67 37 -68 116 -1 157 43 26 68 24 99 -9z m-6903 -77 c0 -49 -3 -57 -22 -64
-32 -12 -38 -6 -38 37 0 41 23 82 46 82 10 0 14 -14 14 -55z m5825 6 c3 -11 3
-31 -1 -46 -6 -23 -11 -26 -43 -23 -28 2 -37 8 -39 25 -2 12 2 31 8 42 14 28
66 29 75 2z m-3774 -50 c34 -35 37 -68 8 -105 -24 -30 -72 -35 -107 -10 -31
22 -30 82 3 118 31 34 60 33 96 -3z m1744 17 c37 -17 53 -76 30 -112 -34 -52
-109 -42 -130 17 -11 34 8 75 45 94 30 15 24 15 55 1z m-1178 -35 c46 -15 82
-31 80 -36 -1 -5 -34 -26 -72 -47 -149 -82 -215 -158 -215 -246 1 -126 130
-228 420 -329 177 -62 336 -145 404 -212 71 -71 100 -119 122 -202 39 -156
-35 -327 -183 -422 -60 -37 -79 -36 -128 6 l-40 35 45 40 c121 110 142 132
160 172 40 87 21 158 -67 246 -52 53 -82 73 -185 121 -68 32 -170 75 -228 95
-220 78 -363 182 -425 310 -60 123 -41 270 47 370 43 50 143 125 167 125 8 1
52 -11 98 -26z m2213 12 c61 -32 76 -85 36 -131 -21 -25 -31 -28 -109 -33 -99
-7 -97 -8 -97 72 0 61 5 70 45 91 38 20 88 20 125 1z m-5670 -5 c0 -5 -9 -10
-21 -10 -11 0 -17 5 -14 10 3 6 13 10 21 10 8 0 14 -4 14 -10z m635 -15 c45
-18 61 -56 45 -107 -13 -44 -34 -58 -88 -58 -75 0 -117 85 -72 143 18 22 30
28 73 36 4 0 23 -6 42 -14z m6238 3 c34 -18 46 -40 47 -84 1 -106 -133 -130
-175 -31 -34 81 50 157 128 115z m-5110 -39 c49 -60 -23 -136 -93 -99 -45 24
-45 63 -1 113 20 23 69 16 94 -14z m-1933 6 c18 -21 -1 -61 -36 -77 -31 -14
-47 3 -38 42 11 49 48 66 74 35z m1334 -26 c63 -55 57 -129 -13 -176 -48 -32
-92 -30 -135 7 -42 37 -52 76 -32 123 23 57 50 77 101 77 35 0 51 -6 79 -31z
m5234 11 c18 -11 40 -36 48 -55 12 -30 12 -40 1 -67 -37 -86 -120 -106 -184
-46 -50 47 -33 146 29 173 45 19 67 18 106 -5z m-364 -22 c3 -18 6 -188 7
-378 1 -278 4 -355 16 -396 14 -47 14 -53 -2 -88 -23 -48 -50 -65 -112 -73
-106 -12 -175 77 -128 167 21 41 53 60 103 60 l43 0 -3 362 -3 363 30 6 c17 4
33 7 36 8 4 0 9 -14 13 -31z m-5947 -10 c75 -70 66 -186 -20 -252 -95 -72
-227 -6 -227 115 0 35 32 110 55 129 52 43 150 47 192 8z m3649 -7 l62 -29 7
-108 c8 -112 2 -370 -8 -381 -4 -3 -37 6 -74 20 l-68 25 -3 251 c-2 197 0 251
10 251 7 0 41 -13 74 -29z m3790 -2 c39 -36 55 -74 55 -133 1 -87 -46 -136
-130 -136 -56 0 -85 13 -117 55 -57 75 -39 177 38 226 44 27 118 22 154 -12z
m-5148 -75 c43 -30 19 -114 -32 -114 -27 0 -40 9 -55 37 -14 27 1 66 33 81 28
14 28 14 54 -4z m2754 -1 c25 -23 23 -59 -7 -88 -29 -30 -35 -31 -69 -4 -31
25 -33 47 -5 83 23 30 54 33 81 9z m716 -35 c-2 -12 -8 -23 -15 -25 -15 -5
-35 31 -27 51 9 24 46 1 42 -26z m-5056 -18 c40 0 66 -73 36 -98 -22 -17 -73
-23 -101 -13 -73 28 -48 133 28 116 11 -3 28 -5 37 -5z m1999 -25 c65 -42 98
-132 78 -211 -15 -60 -78 -129 -126 -141 -32 -8 -38 -13 -35 -33 1 -14 5 -108
8 -210 4 -129 10 -198 21 -228 13 -36 13 -57 4 -120 -18 -136 -23 -202 -12
-202 5 0 13 5 16 10 8 13 81 13 106 -1 43 -23 42 -106 -1 -129 -37 -20 -140
-7 -186 22 -7 4 -13 61 -17 141 -4 109 -9 142 -26 175 -25 49 -26 71 -6 98 12
15 14 61 15 237 l0 219 -50 45 c-95 85 -114 166 -61 259 45 77 99 107 185 99
30 -3 64 -14 87 -30z m3925 10 c30 -30 26 -58 -12 -92 -29 -27 -54 -29 -94 -8
-51 27 -48 73 9 108 37 23 68 21 97 -8z m-1897 -4 c51 -26 99 -83 107 -126 17
-94 -16 -180 -85 -221 -16 -10 -32 -25 -34 -35 -3 -9 -5 -142 -6 -296 -2 -420
-19 -573 -65 -573 -23 0 -29 162 -22 535 l7 340 -46 19 c-102 41 -151 163
-106 261 46 99 158 142 250 96z m850 -35 c56 -29 107 -122 95 -172 -12 -49
-33 -72 -100 -109 -64 -35 -94 -43 -94 -26 0 4 -20 21 -45 36 -73 47 -97 134
-55 202 29 49 70 69 163 82 4 1 21 -5 36 -13z m-3757 -13 c62 -36 90 -155 50
-214 -19 -29 -99 -99 -113 -99 -5 0 -37 15 -71 34 -67 35 -108 87 -108 136 0
39 34 103 69 133 27 22 42 27 88 27 34 0 66 -7 85 -17z m-1591 -23 c10 -6 26
-24 34 -40 46 -89 -26 -192 -123 -176 -97 15 -120 134 -41 201 33 27 94 34
130 15z m967 -2 c19 -19 14 -36 -14 -54 -22 -15 -27 -15 -35 -3 -13 21 -11 36
7 53 19 19 26 20 42 4z m5960 -4 c74 -51 66 -178 -12 -204 -64 -21 -125 11
-147 77 -15 47 -4 98 28 123 31 24 99 27 131 4z m-6148 -119 c0 -15 -19 -24
-37 -18 -14 5 -18 55 -6 67 9 9 43 -30 43 -49z m5466 26 c16 -31 3 -65 -25
-69 -43 -7 -64 35 -40 79 14 27 50 21 65 -10z m-5605 9 c24 -13 26 -62 3 -85
-24 -24 -68 -16 -72 14 -5 36 6 69 26 74 9 3 18 5 20 6 2 0 12 -4 23 -9z
m4163 -41 c34 -27 32 -64 -6 -92 -25 -19 -28 -19 -52 -3 -31 20 -35 69 -9 98
21 23 34 23 67 -3z m-2744 -18 c5 -11 10 -33 10 -50 0 -25 -5 -32 -27 -37 -34
-9 -77 14 -81 43 -3 23 40 63 69 63 10 0 23 -9 29 -19z m3928 -122 c27 -53 23
-83 -19 -121 -48 -46 -114 -35 -144 22 -34 65 -3 134 65 149 51 11 72 0 98
-50z m708 42 c55 -33 80 -123 51 -181 -7 -13 -28 -35 -46 -47 -65 -44 -151
-20 -184 50 -21 44 -21 66 0 118 29 73 112 101 179 60z m-6448 -7 c32 -22 52
-67 52 -114 0 -73 -51 -120 -130 -120 -32 0 -48 7 -78 34 -34 31 -37 39 -36
85 1 62 17 95 58 115 40 20 106 20 134 0z m715 -25 c69 -74 0 -189 -99 -165
-38 10 -84 59 -84 91 0 66 62 120 125 109 17 -3 42 -19 58 -35z m371 -8 c23
-26 17 -60 -16 -84 -25 -19 -28 -19 -52 -3 -34 21 -35 68 -4 90 30 21 51 20
72 -3z m4232 -17 c14 -55 -48 -116 -83 -82 -37 38 -3 108 53 108 17 0 25 -7
30 -26z m-5607 -20 c27 -34 27 -59 -1 -78 -29 -20 -47 -20 -70 1 -24 21 -23
58 2 83 27 27 44 25 69 -6z m1611 -351 c5 -341 6 -352 26 -375 34 -36 37 -61
13 -91 -28 -36 -63 -35 -101 3 -26 27 -30 36 -24 68 3 20 6 195 6 389 l0 352
23 4 c55 11 52 30 57 -350z m3739 342 c10 -11 0 -618 -11 -639 -7 -12 -6 -22
1 -29 16 -16 13 -99 -4 -123 -8 -12 -28 -27 -45 -34 -37 -15 -70 3 -90 49 -16
39 -1 79 40 109 27 20 28 24 18 59 -10 36 -8 135 9 492 l6 133 35 -5 c19 -4
37 -9 41 -12z m1605 -1 c16 -42 -1 -84 -33 -84 -20 0 -51 30 -51 48 0 41 71
71 84 36z m-4883 -34 c22 -12 49 -60 49 -88 0 -27 -48 -72 -77 -72 -33 0 -73
42 -73 77 0 34 24 71 54 83 28 11 25 11 47 0z m2794 -25 c34 -33 33 -74 -3
-108 -34 -33 -49 -34 -79 -5 -39 36 -28 97 22 126 28 16 33 15 60 -13z m-2115
-50 c32 -17 60 -61 60 -95 0 -84 -106 -131 -164 -73 -49 48 -47 106 6 155 34
32 56 35 98 13z m1480 0 c39 -20 58 -81 40 -125 -30 -73 -109 -93 -161 -41
-41 42 -41 97 2 146 35 39 70 45 119 20z m-3707 -37 c24 -28 21 -53 -9 -77
-32 -25 -52 -26 -82 -5 -29 20 -28 59 3 90 29 29 58 26 88 -8z m5904 12 c34
-31 38 -58 12 -86 -28 -30 -66 -31 -96 -2 -30 28 -29 62 3 87 33 26 54 26 81
1z m-5419 -42 c7 -7 12 -27 12 -44 0 -25 -5 -34 -21 -39 -14 -5 -25 -2 -30 6
-13 21 -11 77 4 82 19 8 22 8 35 -5z m4917 -9 c4 -5 4 -21 1 -35 -5 -19 -12
-25 -29 -22 -12 2 -23 11 -25 21 -7 33 37 63 53 36z m-2690 -45 c36 -15 64
-31 63 -36 -2 -5 -32 -33 -68 -61 -81 -66 -122 -130 -128 -200 -10 -123 79
-217 318 -336 85 -42 173 -88 195 -103 63 -40 135 -118 164 -178 23 -49 26
-67 26 -160 0 -95 -3 -110 -27 -156 -31 -59 -123 -164 -144 -164 -19 0 -94 50
-94 62 0 5 23 37 50 71 51 63 90 147 90 193 0 102 -106 195 -353 313 -67 32
-138 71 -158 87 -56 46 -149 155 -175 206 -46 91 -48 217 -4 316 23 52 136
172 161 172 11 0 48 -12 84 -26z m-1001 -16 c31 -45 11 -97 -45 -117 -27 -9
-33 -8 -55 14 -29 30 -31 64 -3 99 27 34 81 36 103 4z m-1915 -3 c71 -36 45
-145 -35 -145 -57 0 -95 76 -60 122 10 14 43 33 64 37 2 1 16 -6 31 -14z
m6336 -21 c35 -37 32 -76 -6 -108 -39 -33 -56 -33 -91 1 -32 30 -35 51 -13 93
25 48 73 54 110 14z m-3194 -70 l59 -27 0 -206 c0 -113 -5 -213 -10 -221 -8
-13 -19 -10 -75 18 l-65 32 0 215 c0 246 -6 232 91 189z m2859 15 c124 -28
180 -187 106 -299 -36 -55 -82 -74 -160 -67 -65 6 -93 22 -140 80 -24 30 -31
49 -34 95 -6 94 47 173 129 192 46 11 48 11 99 -1z m-5621 -29 c82 -58 94
-198 24 -281 -35 -41 -79 -59 -146 -59 -66 0 -111 27 -144 85 -49 87 -11 218
77 263 59 30 141 27 189 -8z m4135 9 c15 -12 26 -30 26 -45 0 -27 -40 -74 -64
-74 -30 0 -73 67 -62 97 3 7 1 13 -4 13 -6 0 -10 5 -10 11 0 6 7 9 15 6 8 -4
17 -2 20 3 10 17 51 11 79 -11z m-2737 -21 c32 -30 29 -52 -13 -74 l-36 -19
-19 24 c-25 31 -24 56 3 75 29 21 37 20 65 -6z m2215 -59 c19 -25 19 -28 4
-58 -30 -57 -115 -39 -116 24 0 11 7 31 16 43 22 31 70 26 96 -9z m-1724 -46
c-3 -31 -34 -44 -44 -19 -9 24 3 46 26 46 17 0 21 -5 18 -27z m-1178 -3 c42
-42 13 -110 -46 -110 -25 0 -64 43 -64 69 0 54 70 81 110 41z m4157 -2 c42
-39 18 -98 -40 -98 -32 0 -67 24 -67 46 0 19 50 74 68 74 9 0 26 -10 39 -22z
m427 -90 c22 -31 20 -75 -3 -88 -27 -14 -37 -13 -55 6 -22 21 -20 60 4 84 26
26 35 25 54 -2z m-5059 -12 c13 -19 14 -29 5 -45 -10 -21 -40 -41 -59 -41 -17
0 -41 31 -41 52 0 54 67 77 95 34z m1310 -19 c51 -50 66 -112 45 -177 -55
-167 -283 -132 -298 45 -4 48 -1 60 28 105 41 63 51 69 124 70 56 0 61 -2 101
-43z m2534 28 c68 -35 108 -115 92 -184 -19 -84 -73 -131 -153 -131 -39 0 -54
6 -82 31 -43 37 -72 118 -62 172 17 93 127 153 205 112z m-584 -115 c8 -38
-16 -80 -47 -80 -50 0 -78 70 -40 102 40 36 76 26 87 -22z m-1405 15 c22 -23
22 -25 6 -49 -22 -35 -51 -49 -74 -37 -30 16 -44 39 -37 60 17 54 67 66 105
26z m1565 -61 c19 -8 45 -55 45 -83 0 -30 -48 -81 -76 -81 -36 0 -64 34 -64
78 1 40 13 61 45 80 24 13 28 14 50 6z m-3238 -23 c83 -38 121 -142 89 -244
-21 -67 -59 -109 -119 -132 -84 -32 -191 4 -235 80 -60 105 13 277 129 305 56
13 92 11 136 -9z m4766 8 c52 -14 112 -71 133 -124 23 -61 16 -150 -16 -194
-42 -60 -151 -89 -227 -60 -106 40 -160 202 -97 294 56 83 119 109 207 84z
m-5125 -11 c19 -19 14 -70 -10 -95 -26 -27 -35 -28 -60 -6 -26 23 -24 78 4 97
27 19 50 20 66 4z m5438 -23 c32 -49 -3 -95 -62 -81 -19 5 -24 13 -24 38 0 62
55 90 86 43z m-4072 -227 c26 -28 28 -36 23 -85 -5 -43 -2 -58 12 -71 9 -9 73
-69 141 -132 69 -63 162 -151 207 -194 l83 -79 -20 -31 c-10 -17 -23 -31 -29
-31 -5 0 -115 100 -244 222 -187 177 -242 224 -274 232 -22 6 -47 19 -57 30
-45 50 -20 146 44 168 47 17 79 8 114 -29z m2058 -9 c39 -46 46 -94 21 -138
-22 -39 -74 -71 -113 -71 -71 0 -138 78 -126 145 20 107 150 145 218 64z m718
24 c66 -60 39 -157 -48 -178 -37 -9 -73 -41 -277 -245 -129 -129 -236 -232
-238 -230 -2 3 -13 22 -25 42 l-21 37 92 88 c50 48 150 144 221 213 l130 125
0 56 c1 62 14 85 61 105 46 20 72 17 105 -13z m-2036 2 c53 -40 70 -109 41
-165 -20 -38 -63 -60 -119 -60 -110 0 -153 140 -65 215 35 29 111 34 143 10z
m-458 -29 c45 -45 44 -75 -1 -115 -42 -36 -38 -35 -75 -16 -68 35 -65 115 5
153 29 17 34 15 71 -22z m2144 14 c42 -42 33 -102 -21 -143 -30 -21 -52 -18
-93 14 -33 26 -36 84 -5 123 26 33 88 37 119 6z m1050 -65 c0 -11 -317 -323
-620 -610 -52 -49 -156 -148 -230 -220 -74 -71 -245 -236 -379 -365 -134 -129
-247 -236 -252 -238 -4 -2 -15 11 -24 28 -16 30 -15 32 12 63 16 18 101 102
188 187 88 85 245 238 350 341 104 102 336 325 515 496 179 171 341 327 360
347 l35 37 23 -26 c12 -14 22 -32 22 -40z m-3979 -230 c156 -148 392 -375 524
-505 132 -130 333 -325 448 -434 213 -204 223 -218 192 -260 -14 -18 -18 -16
-87 46 -40 36 -215 202 -388 368 -173 166 -476 455 -672 643 -196 187 -360
347 -363 355 -6 17 33 64 51 60 7 -2 140 -124 295 -273z m1634 243 c25 -12 45
-26 45 -30 0 -4 -16 -28 -35 -53 -61 -81 -72 -176 -29 -263 28 -57 108 -136
199 -197 143 -95 195 -145 230 -219 62 -129 31 -262 -74 -316 l-24 -12 7 101
c7 92 6 105 -14 147 -24 48 -114 130 -270 243 -153 112 -212 207 -218 352 -3
72 0 95 17 135 29 64 82 133 103 134 10 0 38 -10 63 -22z m211 -130 c25 -18
47 -42 51 -56 7 -30 -2 -241 -12 -264 -11 -27 -38 -22 -87 15 l-43 33 -3 162
-2 162 26 -10 c14 -6 46 -25 70 -42z m-2172 -49 c47 -55 22 -128 -50 -148 -65
-18 -114 19 -114 85 0 35 5 47 31 68 45 38 99 36 133 -5z m4405 5 c60 -50 26
-144 -52 -144 -43 0 -87 38 -87 75 0 31 24 81 42 88 31 13 69 5 97 -19z
m-1375 -66 c40 -56 -1 -128 -72 -128 -48 0 -62 14 -62 63 0 50 15 76 53 92 36
15 57 8 81 -27z m-1676 6 c17 -11 22 -24 22 -57 0 -52 -29 -85 -83 -94 -31 -5
-40 -1 -67 25 -36 36 -39 77 -10 115 31 39 88 43 138 11z m2185 -23 c2 -11 0
-24 -6 -30 -15 -15 -47 5 -47 29 0 27 46 28 53 1z m-1988 -71 c10 -30 -13 -53
-44 -45 -35 9 -43 26 -24 47 22 25 60 23 68 -2z m1236 -5 c0 -5 -9 -11 -21
-13 -20 -3 -27 8 -13 22 10 9 34 3 34 -9z m-2594 -44 c13 -17 17 -60 7 -86 -9
-22 -61 -47 -84 -40 -26 8 -60 53 -60 79 0 22 42 69 70 78 18 6 50 -9 67 -31z
m4012 18 c35 -32 43 -65 26 -98 -25 -49 -90 -57 -130 -16 -71 70 31 182 104
114z m-2598 -164 c24 -18 48 -47 65 -81 23 -46 26 -62 20 -106 -4 -28 -13 -63
-21 -77 -29 -57 -112 -111 -167 -111 -70 0 -152 50 -184 111 -21 41 -18 115 8
165 60 122 183 165 279 99z m1278 -3 c43 -31 85 -119 85 -177 0 -192 -257
-257 -359 -91 -90 148 43 331 214 295 19 -4 46 -16 60 -27z m-2511 3 c35 -29
44 -62 26 -103 -16 -39 -51 -62 -94 -62 -54 0 -80 23 -80 72 0 34 6 47 39 79
45 45 68 48 109 14z m3651 -14 c42 -40 43 -90 2 -132 -46 -46 -107 -33 -136
28 -20 42 -13 76 22 109 35 32 74 31 112 -5z m-2025 -171 c18 -10 38 -30 45
-43 12 -22 10 -29 -15 -67 -25 -38 -29 -53 -32 -141 -5 -107 -13 -119 -51 -77
-38 40 -54 101 -49 180 5 73 39 168 60 168 6 0 25 -9 42 -20z m1824 -16 c25
-28 30 -98 9 -125 -34 -45 -92 -50 -136 -13 -26 21 -31 33 -31 67 1 93 98 137
158 71z m-3235 6 c33 -27 41 -63 22 -104 -41 -86 -175 -70 -175 21 0 44 14 69
48 87 38 21 75 19 105 -4z m1558 -125 c22 -14 43 -36 48 -48 13 -35 22 -323
11 -352 -11 -30 -31 -39 -65 -31 -42 11 -52 48 -60 221 -7 158 -1 235 16 235
5 0 27 -11 50 -25z m-1338 -86 c63 -68 17 -169 -78 -169 -37 0 -51 5 -70 26
-35 37 -34 92 2 134 48 58 98 61 146 9z m2794 4 c54 -36 45 -136 -16 -167 -37
-20 -45 -20 -87 0 -60 29 -67 111 -13 160 41 37 68 38 116 7z m-1816 -26 c45
-34 50 -92 13 -136 -34 -41 -88 -43 -133 -5 -41 34 -41 72 0 119 25 28 38 35
68 35 20 0 43 -6 52 -13z m820 -16 c46 -46 37 -106 -21 -136 -44 -23 -65 -18
-99 20 -40 46 -39 69 3 111 43 43 77 44 117 5z m-1589 -162 c27 -15 51 -74 43
-110 -10 -45 -58 -79 -111 -79 -93 0 -124 91 -58 169 21 25 33 31 66 31 21 0
48 -5 60 -11z m2360 0 c23 -12 48 -67 48 -105 0 -16 -13 -39 -34 -60 -43 -43
-99 -47 -139 -10 -47 44 -48 100 -1 155 21 25 33 31 66 31 21 0 48 -5 60 -11z
m-1452 -41 c13 -25 13 -31 0 -55 -21 -37 -53 -41 -85 -9 -22 22 -24 29 -14 48
29 54 73 61 99 16z m494 16 c34 -34 8 -88 -39 -82 -24 2 -31 8 -33 31 -4 30
21 67 44 67 7 0 20 -7 28 -16z m182 -163 c120 -55 175 -179 125 -286 -34 -74
-102 -115 -191 -115 -118 0 -210 96 -210 220 0 145 145 240 276 181z m-746
-10 c48 -25 90 -95 97 -162 4 -48 1 -62 -28 -118 -27 -52 -43 -69 -79 -89 -91
-48 -214 -11 -260 78 -38 74 -18 199 39 254 57 55 166 72 231 37z m-635 -13
c49 -22 70 -93 40 -135 -32 -46 -131 -47 -155 -3 -25 46 -3 111 44 134 38 19
39 19 71 4z m1940 -13 c19 -18 25 -35 25 -70 0 -73 -57 -112 -119 -81 -36 19
-51 44 -51 83 0 77 93 121 145 68z m-974 -94 c34 -35 36 -49 8 -85 -35 -45
-109 -25 -109 30 0 23 44 84 62 84 5 0 23 -13 39 -29z m-752 -116 c48 -55 36
-108 -28 -135 -61 -25 -111 8 -111 71 0 31 7 47 29 70 40 39 71 38 110 -6z
m1527 -9 c56 -56 41 -136 -27 -151 -59 -13 -119 35 -119 96 0 28 62 89 90 89
12 0 37 -15 56 -34z m-744 -106 c50 -54 47 -110 -6 -146 -43 -27 -101 -23
-137 12 -27 25 -30 34 -26 67 6 40 37 83 72 98 31 13 67 1 97 -31z m-222 -80
c13 -25 5 -40 -21 -40 -22 0 -34 22 -25 45 8 21 33 19 46 -5z m-387 -42 c17
-23 19 -31 9 -53 -18 -38 -55 -52 -87 -31 -32 21 -33 61 -3 93 28 29 55 26 81
-9z m1179 15 c24 -21 23 -58 -2 -83 -26 -26 -54 -25 -80 2 -27 29 -25 52 6 77
32 25 51 26 76 4z m-903 -40 c87 -74 15 -218 -96 -192 -53 11 -83 45 -83 91 0
52 22 92 62 111 48 24 79 21 117 -10z m673 -12 c28 -25 33 -36 33 -76 0 -40
-5 -51 -34 -77 -29 -26 -39 -30 -75 -25 -51 7 -106 62 -106 104 2 92 112 137
182 74z m-294 -124 c58 -38 95 -105 95 -170 -1 -128 -86 -217 -207 -217 -46 0
-61 5 -98 33 -109 83 -133 202 -63 308 53 81 186 104 273 46z m-420 -157 c12
-12 22 -28 22 -37 0 -24 -30 -53 -55 -53 -30 0 -45 19 -45 55 0 55 38 72 78
35z m697 -11 c15 -29 15 -32 -1 -50 -32 -36 -94 -14 -94 33 0 32 18 48 52 48
21 0 31 -8 43 -31z m-1060 -580 c20 -20 20 -20 -8 -45 -34 -29 -66 -31 -95 -4
-29 28 -28 46 6 65 32 17 69 11 97 -16z m1275 11 c25 -25 25 -32 -1 -56 -20
-18 -44 -19 -388 -22 -235 -2 -402 1 -467 8 -78 9 -115 9 -162 0 -76 -15 -107
-8 -127 30 -8 16 -15 32 -15 35 0 20 102 24 593 24 534 1 547 1 567 -19z m257
-4 c27 -24 28 -24 9 -45 -26 -29 -80 -37 -111 -17 -31 20 -32 50 -3 70 32 23
73 20 105 -8z m251 -4 c16 -21 12 -31 -22 -56 -25 -19 -29 -19 -54 -5 -36 20
-37 59 -2 76 29 14 59 8 78 -15z m241 18 c45 -24 24 -80 -29 -80 -53 0 -67 53
-20 77 30 15 27 15 49 3z m-2545 -22 c27 -44 -41 -75 -85 -38 l-24 20 24 20
c28 24 69 23 85 -2z m258 -4 c11 -22 10 -28 -7 -40 -23 -17 -67 -18 -83 -2
-30 30 -3 67 51 68 20 0 31 -7 39 -26z m2572 10 c19 -19 20 -38 4 -51 -29 -22
-48 -22 -75 1 -27 24 -28 24 -9 45 23 25 58 27 80 5z m277 6 c26 -15 24 -44
-5 -59 -44 -24 -88 23 -54 57 15 15 33 15 59 2z m273 -6 c9 -8 16 -21 16 -28
0 -16 -21 -36 -39 -36 -16 0 -51 28 -51 41 0 13 30 39 45 39 7 0 21 -7 29 -16z
m360 -6 c16 -26 -12 -51 -47 -42 -31 7 -36 37 -9 53 23 14 42 10 56 -11z
m-4643 -9 c15 -28 0 -41 -42 -37 -24 2 -35 9 -37 22 -8 38 59 51 79 15z m285
0 c18 -20 18 -21 -1 -35 -39 -29 -94 5 -66 40 18 22 44 20 67 -5z m322 9 c19
-19 14 -37 -13 -50 -29 -13 -75 2 -75 25 0 33 62 51 88 25z m-900 -22 c3 -13
-1 -17 -14 -14 -11 2 -20 11 -22 22 -3 13 1 17 14 14 11 -2 20 -11 22 -22z"/>
</g>
</svg>
